<?xml version="1.0" encoding="UTF-8" standalone="no"?>
<!-- Created with Inkscape (http://www.inkscape.org/) -->

<svg
   xmlns:dc="http://purl.org/dc/elements/1.1/"
   xmlns:cc="http://creativecommons.org/ns#"
   xmlns:rdf="http://www.w3.org/1999/02/22-rdf-syntax-ns#"
   xmlns:svg="http://www.w3.org/2000/svg"
   xmlns="http://www.w3.org/2000/svg"
   xmlns:sodipodi="http://sodipodi.sourceforge.net/DTD/sodipodi-0.dtd"
   xmlns:inkscape="http://www.inkscape.org/namespaces/inkscape"
   width="650"
   height="1050"
   viewBox="0 0 649.99996 1050"
   id="svg3536"
   version="1.1"
   inkscape:version="0.91 r13725"
   sodipodi:docname="arrow-left.svg">
  <defs
     id="defs3538" />
  <sodipodi:namedview
     id="base"
     pagecolor="#ffffff"
     bordercolor="#666666"
     borderopacity="1.0"
     inkscape:pageopacity="0.0"
     inkscape:pageshadow="2"
     inkscape:zoom="0.35"
     inkscape:cx="375"
     inkscape:cy="520"
     inkscape:document-units="px"
     inkscape:current-layer="layer1"
     showgrid="false"
     units="px"
     inkscape:window-width="1440"
     inkscape:window-height="851"
     inkscape:window-x="0"
     inkscape:window-y="23"
     inkscape:window-maximized="1" />
  <metadata
     id="metadata3541">
    <rdf:RDF>
      <cc:Work
         rdf:about="">
        <dc:format>image/svg+xml</dc:format>
        <dc:type
           rdf:resource="http://purl.org/dc/dcmitype/StillImage" />
        <dc:title />
      </cc:Work>
    </rdf:RDF>
  </metadata>
  <g
     inkscape:label="Layer 1"
     inkscape:groupmode="layer"
     id="layer1"
     transform="translate(0,-2.36202)">
    <path
       style="fill:#000000;fill-rule:evenodd;stroke:#000000;stroke-width:0.94649959px;stroke-linecap:butt;stroke-linejoin:miter;stroke-opacity:1"
       d="m 654.45094,1055.2396 -327.17154,0 L 0.10783,529.50513 327.2794,3.77059 l 327.17154,0 -327.17154,525.73454 z"
       id="path3525"
       inkscape:connector-curvature="0" />
    <path
       style="fill:#4f4f4f"
       d="M 165.18636,789.71374 1.7457843,527.14174 162.23003,268.99945 C 250.49636,127.02118 324.18531,9.239176 325.98323,7.2616611 c 2.56826,-2.824796 37.69808,-3.43722 163.8912,-2.8571428 L 650.49669,5.1428571 489.03406,264.62166 C 400.2296,407.335 327.57143,525.46471 327.57143,527.13211 c 0,1.6674 72.64286,119.76875 161.42857,262.44743 88.78571,142.67872 161.42857,260.15616 161.42857,261.06096 0,0.9049 -72.40537,1.6452 -160.90083,1.6452 l -160.9008,0 -163.44058,-262.57196 z"
       id="path3334"
       inkscape:connector-curvature="0"
       transform="translate(-3.0517578e-5,2.36202)" />
  </g>
</svg>
