<?xml version="1.0" encoding="UTF-8" standalone="no"?>
<!-- Created with Inkscape (http://www.inkscape.org/) -->
<svg
   xmlns:dc="http://purl.org/dc/elements/1.1/"
   xmlns:cc="http://web.resource.org/cc/"
   xmlns:rdf="http://www.w3.org/1999/02/22-rdf-syntax-ns#"
   xmlns:svg="http://www.w3.org/2000/svg"
   xmlns="http://www.w3.org/2000/svg"
   xmlns:sodipodi="http://sodipodi.sourceforge.net/DTD/sodipodi-0.dtd"
   xmlns:inkscape="http://www.inkscape.org/namespaces/inkscape"
   id="svg1999"
   sodipodi:version="0.32"
   inkscape:version="0.44"
   width="908"
   height="1159"
   version="1.0"
   sodipodi:docbase="D:\My Pictures\SVG"
   sodipodi:docname="Blank_Ireland.svg">
  <path
     d="M 197.36769,1140.2727 C 199.22109,1138.3857 205.86769,1135.0916 205.86769,1136.0601 C 205.86769,1137.2525 202.19579,1139.6205 198.86769,1140.5744 C 197.17619,1141.0592 196.69109,1140.9616 197.36769,1140.2727 z M 145.86769,1132.8559 C 145.86769,1132.0199 144.99029,1130.2203 143.91779,1128.8569 L 141.96799,1126.3781 L 145.91419,1124.1601 C 148.08459,1122.9403 151.04049,1120.3951 152.48279,1118.5042 C 154.17659,1116.2834 155.94829,1115.0661 157.48639,1115.0661 C 158.94979,1115.0661 159.86769,1114.4805 159.86769,1113.547 C 159.86769,1112.4368 160.52319,1112.1925 162.30339,1112.6393 C 165.66569,1113.4832 171.83349,1109.0247 179.36769,1100.3041 C 182.66769,1096.4844 187.61769,1092.0558 190.36769,1090.4627 L 195.36769,1087.5661 L 190.50159,1087.2566 C 186.14579,1086.9795 184.52009,1087.5685 175.00159,1092.872 C 169.15299,1096.1307 162.70309,1099.0986 160.66849,1099.4673 C 158.63389,1099.836 153.79639,1101.4461 149.91849,1103.0452 C 146.04059,1104.6443 142.86769,1105.5828 142.86769,1105.1307 C 142.86769,1104.6786 144.15939,1103.7737 145.73799,1103.1198 C 147.31669,1102.4659 149.09869,1100.8547 149.69799,1099.5392 C 150.29739,1098.2238 152.64789,1096.1986 154.92139,1095.0387 C 157.19489,1093.8789 161.83139,1091.2306 165.22459,1089.1537 C 168.61789,1087.0768 173.18829,1084.7907 175.38099,1084.0736 C 177.57369,1083.3565 181.99319,1080.9939 185.20209,1078.8234 C 189.05309,1076.2185 191.73089,1075.0586 193.07929,1075.4112 C 196.42649,1076.2865 207.78149,1071.0458 210.63029,1067.3108 C 213.14229,1064.0174 213.14359,1064.0042 211.35539,1060.0388 C 210.37009,1057.8538 209.51689,1056.0661 209.45929,1056.0661 C 209.40169,1056.0661 207.90239,1056.4826 206.12759,1056.9916 C 203.03929,1057.8773 202.67079,1057.663 197.54849,1052.0028 L 192.19639,1046.0885 L 191.16699,1049.4427 C 190.50379,1051.6035 190.47799,1053.4052 191.09429,1054.5065 C 192.25099,1056.5733 191.68229,1057.238 187.54599,1058.6543 C 185.17919,1059.4647 184.23839,1060.4859 183.86129,1062.6543 C 183.37849,1065.4298 182.86379,1065.6936 172.86129,1068.2901 C 162.53759,1070.97 157.16879,1071.8997 139.42679,1074.0799 C 129.28349,1075.3263 125.76218,1076.99 123.20097,1081.7459 C 122.08771,1083.8131 120.6496,1085.0698 119.39032,1085.0759 C 118.27789,1085.0812 114.99685,1086.1894 112.09912,1087.5385 C 107.36668,1089.7417 106.27769,1089.8891 101.39805,1088.9871 C 96.458214,1088.0739 95.510724,1088.2133 90.949894,1090.5245 C 85.469434,1093.3016 83.810964,1093.7229 85.667724,1091.8661 C 86.327724,1091.2061 86.867724,1089.6311 86.867724,1088.3661 C 86.867724,1085.9689 86.876974,1085.9664 97.228454,1085.5658 C 100.57742,1085.4362 102.77828,1082.2274 102.83228,1077.3956 C 102.86272,1074.6722 102.44332,1074.1318 99.858994,1073.5642 C 95.287024,1072.56 97.097484,1071.4017 104.1202,1070.838 C 114.251,1070.0248 119.32116,1066.6387 121.37226,1059.3161 C 121.9275,1057.3338 121.63649,1057.0661 118.92663,1057.0661 C 116.08691,1057.0661 115.94738,1056.9097 117.10925,1055.029 C 117.80141,1053.9085 119.49272,1052.7116 120.86772,1052.369 C 122.24272,1052.0264 125.03944,1050.6975 127.08269,1049.4157 C 129.76159,1047.7352 130.63479,1047.5095 130.21389,1048.6065 C 129.72499,1049.8804 130.34039,1050.0236 133.99889,1049.4871 C 137.14349,1049.026 139.08919,1048.0021 140.94239,1045.8332 C 142.84389,1043.6078 144.05129,1042.9896 145.56029,1043.4685 C 146.68409,1043.8252 148.86319,1043.6381 150.40279,1043.0528 L 153.20199,1041.9885 L 151.02699,1040.4651 C 148.86859,1038.9533 148.90339,1038.8849 155.58839,1031.5039 C 160.51179,1026.0678 163.00329,1024.0565 164.84619,1024.0305 C 170.31999,1023.9531 179.03069,1021.1332 182.23409,1018.4015 C 184.06289,1016.842 186.41599,1015.0301 187.46339,1014.3749 C 189.10899,1013.3456 188.75629,1013.1781 184.86769,1013.142 C 178.69219,1013.0849 166.47659,1016.3978 162.03569,1019.3343 C 154.76409,1024.1425 151.46239,1025.394 146.61769,1025.1785 C 142.17009,1024.9807 141.86769,1025.1253 141.86769,1027.4493 C 141.86769,1029.1302 141.15579,1030.1573 139.66199,1030.6314 C 138.44879,1031.0165 137.31649,1030.9343 137.14569,1030.4488 C 136.01689,1027.2398 135.14749,1026.8701 132.25039,1028.367 C 130.66499,1029.1862 127.43209,1030.3772 125.06622,1031.0137 C 122.7004,1031.6502 120.5074,1032.8415 120.19289,1033.6611 C 119.20112,1036.2456 111.89831,1039.3327 108.19706,1038.7321 C 105.29274,1038.2608 104.66659,1038.5544 103.41543,1040.9738 C 102.59042,1042.5692 99.897124,1044.7866 97.107184,1046.1673 C 92.286184,1048.5532 92.242544,1048.5562 92.640754,1046.4731 C 92.973744,1044.7312 92.125114,1044.0057 87.705304,1042.2536 C 84.769634,1041.0898 81.130224,1039.8478 79.617724,1039.4935 C 76.014364,1038.6494 76.122424,1037.3887 79.868664,1036.5659 C 81.857714,1036.129 83.015674,1035.175 83.302794,1033.7364 C 84.776204,1026.3543 84.733764,1025.2548 82.911684,1023.6059 C 81.888024,1022.6795 80.504764,1020.604 79.837784,1018.9938 C 78.410544,1015.5482 78.924004,1015.6597 73.843894,1017.6923 C 70.920314,1018.8621 69.224924,1020.4058 67.803334,1023.1923 C 66.716394,1025.3229 65.449584,1027.0661 64.988194,1027.0661 C 64.526804,1027.0661 62.099804,1028.8701 59.594844,1031.0751 C 54.543794,1035.5212 53.362294,1034.8774 55.469234,1028.827 C 57.366214,1023.3796 55.758454,1019.3238 51.376094,1018.5017 C 48.382464,1017.9401 48.023784,1017.4997 47.687444,1013.9728 C 47.336224,1010.29 47.471994,1010.0661 50.056114,1010.0661 C 51.773904,1010.0661 53.196984,1009.3194 53.867724,1008.0661 C 54.456424,1006.9661 55.629624,1006.0661 56.474844,1006.0661 C 57.320054,1006.0661 60.032514,1004.8818 62.502524,1003.4342 C 66.365764,1001.1702 67.352174,1000.9658 69.559824,1001.9717 C 72.886304,1003.4873 73.345944,1002.899 71.561904,999.40902 C 70.762584,997.84542 69.812804,995.19082 69.451274,993.50995 C 69.040764,991.60129 67.674754,989.79264 65.813204,988.69299 C 62.681454,986.84302 62.697004,985.06613 65.844954,985.06613 C 69.686854,985.06613 70.807244,984.01372 70.199634,980.97568 C 69.629084,978.12294 69.701884,978.06613 73.928274,978.06613 C 76.765534,978.06613 78.944424,977.41865 80.303274,976.17175 C 81.438724,975.12983 87.317724,972.17102 93.367724,969.59659 C 103.23349,965.39847 104.89356,964.98061 109.46744,965.54416 C 114.38756,966.15036 114.67809,966.04614 117.71744,962.58451 C 119.45009,960.61113 120.87461,958.2247 120.88303,957.28133 C 120.89436,956.01226 121.11023,955.90007 121.71298,956.85 C 122.17139,957.57245 123.27419,957.84738 124.23491,957.47872 C 125.24854,957.08975 126.73969,957.54526 127.90499,958.59984 C 129.82639,960.33874 129.86939,960.28343 129.94519,955.97112 C 130.01599,951.95117 133.61039,939.76228 133.79019,942.93263 C 133.85189,944.01945 135.24919,944.15458 140.61769,943.59288 C 144.33019,943.20445 149.73469,942.91478 152.62759,942.94918 L 157.88739,943.01172 L 155.68949,940.03892 C 154.28469,938.13884 152.60119,937.06613 151.02409,937.06613 C 149.66689,937.06613 147.16399,936.01513 145.46209,934.73058 C 142.60639,932.57518 141.64779,932.43065 133.03409,932.85689 C 124.08486,933.29974 123.72616,933.40621 124.32304,935.44245 C 124.66543,936.61047 125.17639,939.14113 125.45851,941.06613 L 125.97145,944.56613 L 124.50097,941.39487 C 123.6922,939.65067 122.12344,937.73817 121.01484,937.14487 C 116.71682,934.84464 103.72466,936.58774 92.552624,940.96353 C 88.167174,942.6812 85.650214,942.22634 81.926804,939.04328 C 78.711384,936.29448 78.367334,936.209 76.676804,937.73891 C 75.000984,939.25551 74.733024,939.2542 73.038984,937.72112 C 71.942674,936.72897 69.512324,936.06613 66.970894,936.06613 L 62.731534,936.06613 L 64.867724,939.06613 L 67.003914,942.06613 L 64.750274,942.06613 C 63.510764,942.06613 61.545994,941.17305 60.384104,940.08152 C 59.222214,938.98998 56.830714,937.80873 55.069654,937.45652 C 52.061334,936.85485 51.867614,936.98997 51.865844,939.69113 C 51.864134,942.32375 51.384894,942.7072 46.181394,944.23942 C 40.599634,945.88303 40.450854,945.87416 37.796514,943.73942 C 33.881734,940.59099 33.394284,934.8831 36.562394,929.2882 C 37.914774,926.89989 38.731714,924.21297 38.411884,923.20526 C 38.006044,921.92657 38.585874,921.05995 40.400414,920.23319 C 43.663034,918.74664 43.544664,918.72274 44.136924,920.98756 C 44.568894,922.63941 52.584214,927.78486 53.325054,926.88589 C 54.226584,925.79192 54.628844,913.03653 53.778384,912.51091 C 51.996124,911.40941 54.923444,909.08086 58.887274,908.44701 C 61.455664,908.03631 62.970944,907.13501 63.669094,905.60274 C 64.231194,904.36906 66.643334,902.22395 69.029414,900.83584 C 74.236964,897.8063 87.538924,893.40399 88.520244,894.38531 C 89.811064,895.67613 89.266674,901.53379 87.492344,905.44561 L 85.732684,909.3251 L 88.550204,908.662 C 90.099844,908.2973 94.067724,907.6579 97.367724,907.24112 C 104.56627,906.33196 108.32873,904.04295 110.89592,899.01085 C 112.7857,895.30658 112.785,895.23068 110.83832,892.75588 C 108.22331,889.43144 108.34736,888.87341 111.61772,889.24971 C 113.89974,889.51228 114.42046,890.11134 114.67763,892.76992 C 114.84808,894.53201 114.55258,896.78646 114.02095,897.77981 C 113.22104,899.27445 114.08044,900.46758 119.00445,904.69859 C 123.77718,908.79961 126.13428,910.06163 130.91679,911.07653 L 136.87899,912.3418 L 142.02549,908.739 C 147.20099,905.116 148.86769,904.87072 148.86769,907.73214 C 148.86769,908.73284 149.42699,909.06551 150.44949,908.67312 C 151.31949,908.33927 154.46949,908.06613 157.44949,908.06613 L 162.86769,908.06613 L 162.86769,904.18745 C 162.86769,900.78683 162.48289,900.14936 159.74529,899.01543 C 156.23829,897.56277 146.48289,897.07542 143.24129,898.19093 C 141.43239,898.81339 140.88429,898.33589 139.57169,894.99442 C 138.06429,891.15704 138.07879,891.06581 140.19819,891.05248 C 147.54859,891.00621 149.65339,886.40073 147.90039,874.19978 C 147.31819,870.14829 146.59619,866.43579 146.29579,865.94978 C 145.99549,865.46377 144.17889,865.06613 142.25909,865.06613 C 138.71059,865.06613 132.96759,862.6937 131.63299,860.6766 C 129.48089,857.42364 132.57079,855.76518 142.97049,854.59138 C 146.05209,854.24357 150.73609,853.30811 153.37949,852.51257 C 156.02279,851.71703 159.45879,851.06613 161.01479,851.06613 C 163.53599,851.06613 163.91279,850.63634 164.47519,847.11949 C 165.04059,843.58382 165.53649,843.02625 169.23799,841.76502 C 172.79369,840.55347 174.04669,840.55455 178.22439,841.77271 C 180.89439,842.55125 183.31699,842.95019 183.60789,842.65925 C 183.89889,842.3683 183.57179,840.76583 182.88099,839.09819 C 181.99309,836.95447 180.94549,836.06613 179.30539,836.06613 C 176.03069,836.06613 175.58709,834.80039 176.39569,827.76277 C 177.02909,822.24999 177.54129,821.16419 181.03719,817.924 L 184.96679,814.28187 L 190.66729,815.77324 C 193.80249,816.5935 198.36159,817.04106 200.79859,816.76782 C 203.69379,816.44321 206.38039,816.81983 208.54999,817.85441 C 211.78849,819.39878 211.94169,819.36949 214.76369,816.66578 C 217.53869,814.00718 217.95809,813.91831 225.01239,814.4938 C 249.04369,816.45428 246.04599,816.73041 254.64349,811.76437 C 260.72669,808.25065 263.69819,807.17441 268.62999,806.6985 C 272.07429,806.36615 276.74789,805.14761 279.01569,803.99065 C 281.90979,802.51419 283.34689,802.22344 283.83639,803.01536 C 284.31249,803.78578 285.31629,803.84607 287.00129,803.20544 C 288.35849,802.68943 290.64979,802.49298 292.09299,802.76887 C 294.36439,803.20306 295.16419,802.58691 298.04239,798.18555 C 301.71229,792.57372 301.70899,792.57499 315.46649,791.55533 C 322.50519,791.03364 324.02059,791.22375 327.04429,793.00783 L 330.52349,795.06058 L 335.38459,791.60448 C 340.52349,787.95087 340.43999,787.73569 333.42949,786.56342 C 331.26349,786.20122 326.98849,784.65315 323.92949,783.12326 C 318.83159,780.57361 318.07589,780.4489 314.86769,781.62781 C 310.16039,783.35763 302.00269,783.53121 303.66769,781.86613 C 305.35059,780.1833 305.16059,773.16791 303.21839,765.27165 C 302.31129,761.58361 301.47209,758.43946 301.35359,758.28464 C 301.06179,757.90352 285.86769,766.12751 285.86769,766.66656 C 285.86769,766.90125 286.43019,767.99583 287.11769,769.09895 C 288.19369,770.82538 287.84229,772.12618 284.59369,778.44155 C 280.51689,786.36702 271.85309,796.67598 266.47679,799.99873 C 264.05889,801.49308 261.45219,802.06613 257.07249,802.06613 C 251.38679,802.06613 250.83899,802.27766 248.18439,805.49818 C 244.66559,809.76705 240.52849,811.56718 238.85909,809.55573 C 237.37119,807.76286 238.10609,806.62426 241.71659,805.12875 C 244.26159,804.07454 247.59599,799.46106 246.56089,798.42598 C 246.35099,798.21605 242.73269,798.5801 238.52039,799.23498 C 232.87039,800.11337 230.03659,801.11433 227.71659,803.05119 L 224.57159,805.67671 L 215.46969,802.28068 C 205.52309,798.56951 201.50219,795.5186 199.81329,790.40118 C 198.68829,786.99229 197.99639,786.65661 194.19599,787.67594 C 192.10559,788.23663 192.07819,788.41127 193.46399,792.33885 C 194.86119,796.29916 194.82539,796.50084 192.24749,799.1916 C 190.52909,800.9853 188.66949,801.90858 186.97959,801.80711 C 185.54309,801.72086 181.32209,802.27802 177.59959,803.04526 C 170.85879,804.43461 170.82909,804.45553 170.22499,808.23314 C 169.73049,811.32602 169.32539,811.86199 168.03019,811.13716 C 166.94329,810.52889 164.88929,811.03498 161.52419,812.74023 C 157.27329,814.89433 155.81569,815.1404 150.77349,814.55519 C 145.97889,813.99872 144.44429,814.21105 142.15409,815.74777 C 139.28919,817.67001 133.46589,817.77156 134.09369,815.88833 C 134.28309,815.3199 138.61709,812.93109 143.72459,810.57987 C 151.86609,806.83196 154.26589,805.0735 163.18939,796.3167 C 168.78749,790.82318 174.34029,786.02681 175.52899,785.6581 C 177.73609,784.97346 182.17629,779.88172 184.86769,774.94902 C 185.69269,773.43699 188.28729,770.81187 190.63339,769.11541 C 194.73639,766.14849 195.01269,766.08971 197.88109,767.57305 C 200.58649,768.97204 201.09389,768.96407 203.34789,767.48718 C 207.41619,764.82153 209.86769,759.8902 209.86769,754.37241 C 209.86769,750.30749 210.33949,748.97821 212.48739,746.99044 C 216.58239,743.20081 219.86769,737.40621 219.86769,733.9733 C 219.86769,731.37876 221.06999,729.72756 226.86769,724.35979 C 233.74549,717.99203 234.85519,715.80296 233.28269,711.70502 C 232.82939,710.52389 232.13449,710.3944 230.19869,711.13038 C 228.82439,711.65291 227.23679,711.7942 226.67069,711.44436 C 226.10459,711.09452 223.21739,710.86416 220.25459,710.93247 C 217.29179,711.00077 214.86769,710.81576 214.86769,710.52134 C 214.86769,710.22691 216.60399,708.31654 218.72619,706.27607 C 221.25559,703.84404 223.19879,700.67163 224.36749,697.06613 C 227.53909,687.28168 235.84209,671.78903 240.46469,667.03027 C 243.20529,664.20888 245.35749,660.81322 246.15849,658.04659 C 246.99999,655.14006 248.33449,653.10017 250.00969,652.15995 C 252.42299,650.80537 253.04989,650.99614 260.71729,655.41872 C 268.21459,659.74318 269.04049,660.00402 271.11459,658.70267 C 272.35379,657.92517 275.09009,656.74248 277.19519,656.07447 L 281.02259,654.85991 L 278.95749,652.66168 L 276.89239,650.46345 L 282.63009,651.31186 C 298.47179,653.6543 298.25609,653.7014 294.06059,648.81613 C 292.69759,647.22893 292.75059,647.06613 294.63099,647.06613 C 295.77119,647.06613 297.30349,646.84205 298.03589,646.56818 C 298.87349,646.25501 299.98959,647.55377 301.04349,650.06818 C 302.55479,653.67386 303.06989,654.06613 306.29349,654.06613 C 308.25929,654.06613 309.86769,653.86328 309.86769,653.61535 C 309.86769,653.36742 309.38929,650.93362 308.80449,648.20689 C 307.83429,643.68296 307.97139,642.79505 310.37169,638.05824 C 311.81849,635.2032 312.82959,632.6947 312.61869,632.4838 C 312.40779,632.27289 310.76119,632.5231 308.95949,633.03982 C 305.45949,634.04359 300.19959,633.41206 299.24899,631.87395 C 298.93149,631.36034 299.39089,630.14553 300.26979,629.17438 C 301.14869,628.20323 301.86769,626.65658 301.86769,625.73739 C 301.86769,624.49405 302.76389,624.06613 305.36769,624.06613 C 308.67389,624.06613 308.86769,623.8799 308.86769,620.70304 L 308.86769,617.33995 L 302.11769,616.66683 C 298.40519,616.29661 294.91769,615.97285 294.36769,615.94736 C 293.81769,615.92186 290.66769,617.02842 287.36769,618.40637 C 282.08449,620.61245 277.20869,621.2865 246.55159,624.04898 C 227.40279,625.77446 210.54229,627.0467 209.08389,626.87617 C 205.49779,626.45685 201.86769,620.9446 201.86769,615.91825 C 201.86769,613.79958 201.49619,612.06613 201.04199,612.06613 C 199.16399,612.06613 195.99459,616.80564 195.69229,620.06613 C 195.43729,622.81615 194.88429,623.63478 193.11149,623.88649 C 189.60429,624.38449 188.55599,620.43218 191.08939,616.26303 C 193.00509,613.1103 193.08309,610.34384 191.38019,605.94489 C 190.92279,604.76336 191.99069,603.59809 195.31749,601.64841 C 199.39289,599.26011 199.81319,598.68319 199.23679,596.26965 C 198.36999,592.64065 196.99119,590.06613 195.91429,590.06613 C 195.42869,590.06613 194.31949,589.79299 193.44949,589.45914 C 192.23069,588.99143 191.86769,589.51919 191.86769,591.75914 C 191.86769,593.35799 191.32769,595.20613 190.66769,595.86613 C 188.97889,597.55497 185.86769,597.36052 185.86769,595.56613 C 185.86769,594.74113 186.48649,594.06613 187.24269,594.06613 C 187.99899,594.06613 188.89899,592.65988 189.24269,590.94113 C 190.15039,586.40297 190.11139,586.27186 187.30639,584.43396 C 184.76429,582.76832 184.70439,582.79576 179.35599,588.0777 C 175.27699,592.10607 173.66699,594.57052 172.73259,598.21636 C 171.69289,602.27315 171.01459,603.17837 168.43289,603.95444 C 161.54929,606.02373 161.16779,605.95774 157.33789,602.03553 C 153.66539,598.2746 153.59429,598.25131 149.83609,599.57731 C 146.48049,600.76121 145.86659,600.72233 144.52659,599.24106 C 143.27829,597.86116 143.20709,596.83322 144.12239,593.40529 C 145.20029,589.36822 145.53279,589.10593 155.30049,584.58784 L 165.36769,579.93123 L 162.64609,578.48163 C 160.34179,577.25428 160.01599,576.57468 160.52109,574.04908 C 161.05439,571.38257 160.85569,571.06613 158.64769,571.06613 C 157.28919,571.06613 155.36319,571.96613 154.36769,573.06613 C 153.37219,574.16613 151.50249,575.06613 150.21269,575.06613 C 147.43629,575.06613 147.28569,574.3668 149.52829,571.88874 C 151.80169,569.37658 151.09409,569.04702 145.83499,570.16869 C 141.29419,571.13715 140.28439,572.29693 138.43779,578.66437 C 137.68809,581.24956 133.72899,583.22468 131.77559,581.98805 C 131.00129,581.49784 128.92299,581.08986 127.15719,581.08144 C 123.59036,581.06443 123.05579,580.5982 118.88859,573.86989 C 116.08278,569.33967 115.84542,569.19434 112.17384,569.75865 C 110.08047,570.0804 107.78615,570.80214 107.07534,571.36251 C 106.18581,572.06378 105.42211,572.02052 104.62534,571.22375 C 103.98865,570.58706 101.98272,570.06613 100.16772,570.06613 C 96.059284,570.06613 96.003844,568.97083 99.944454,565.65502 C 103.51445,562.65106 104.63761,562.52532 109.55338,564.57926 C 111.54516,565.41148 113.21821,565.97173 113.27126,565.82426 C 113.32431,565.67679 114.63975,564.14772 116.19445,562.42632 L 119.02118,559.29651 L 112.94445,553.14382 C 108.33403,548.47577 106.86772,546.2948 106.86772,544.10536 C 106.86772,539.86321 102.4676,535.07485 98.528834,535.03069 L 95.367724,534.99526 L 97.867724,533.5963 C 99.457654,532.7066 101.86468,532.39808 104.47994,532.74877 C 108.18626,533.24578 108.65055,533.06657 109.1838,530.93317 C 109.75669,528.64118 110.0464,528.57639 118.32158,528.8896 C 123.02196,529.06751 126.86769,528.80846 126.86769,528.31392 C 126.86769,527.81938 125.74272,526.35788 124.36772,525.06613 C 122.99272,523.77438 121.86772,521.7067 121.86772,520.47127 C 121.86772,516.85231 126.48369,516.45351 132.63139,519.54134 L 137.72959,522.102 L 143.31789,519.63058 L 148.90619,517.15916 L 148.25939,512.86264 C 147.89219,510.42376 146.57429,507.4485 145.21119,505.98115 C 143.16189,503.77524 142.78829,502.3088 142.66339,495.98115 C 142.58299,491.90289 143.04599,487.58321 143.69239,486.38187 C 144.33879,485.18053 144.86769,482.46372 144.86769,480.34452 L 144.86769,476.49143 L 154.74079,473.25527 C 162.76329,470.62567 165.12149,470.21211 167.32219,471.04881 C 169.18889,471.75855 172.09189,471.74919 176.66469,471.0187 C 181.71709,470.21156 183.84829,470.25295 185.60349,471.1923 C 187.31139,472.10635 188.19959,472.13426 189.03379,471.30009 C 189.66189,470.67197 191.45009,470.43261 193.07969,470.75853 C 197.36629,471.61585 203.87809,469.16915 204.97279,466.28985 C 206.00089,463.5858 205.41429,462.06613 203.34259,462.06613 C 202.56879,462.06613 200.35539,461.31259 198.42409,460.3916 C 195.63419,459.06119 195.14579,458.43597 196.04779,457.34922 C 196.86029,456.37018 196.87609,455.67452 196.10349,454.90189 C 194.49359,453.29196 195.77149,451.06613 198.30569,451.06613 C 201.26179,451.06613 203.70269,446.77712 201.94909,444.66414 C 201.02309,443.54837 201.00349,442.68105 201.86769,441.06613 C 203.78459,437.48448 201.68019,436.3277 192.07909,435.68543 C 173.20889,434.42309 168.74529,434.46255 167.94149,435.89885 C 166.73259,438.05893 154.76659,443.0071 150.67679,443.03813 C 148.64669,443.05353 146.70769,443.51613 146.36769,444.06613 C 145.62339,445.27047 144.79589,445.30708 143.06959,444.21205 C 142.02649,443.5504 142.18379,441.83415 143.86999,435.47736 C 145.02409,431.12619 146.41309,425.87863 146.95659,423.81613 C 147.79199,420.64619 148.36419,420.06671 150.65629,420.06987 C 154.47079,420.07513 159.57719,423.45943 162.02159,427.60236 C 163.73949,430.51388 164.35079,430.91014 165.56719,429.9006 C 166.66659,428.98818 166.86789,427.55312 166.36609,424.20654 C 165.50529,418.4665 163.11449,414.61646 161.33029,416.0972 C 159.65639,417.48642 158.91969,416.26885 157.46169,409.70317 C 156.61469,405.88898 155.82119,404.49632 154.34649,404.2359 C 151.51849,403.73651 148.91359,400.06582 148.90359,396.56613 C 148.89009,391.85307 149.89149,389.29318 151.96019,388.7522 C 153.01149,388.47728 153.86769,387.38097 153.86769,386.30979 C 153.86769,385.24082 155.21769,382.50259 156.86769,380.22483 C 160.28979,375.50086 160.44089,374.78672 158.38069,373.07691 C 156.60939,371.60683 151.86769,372.54311 151.86769,374.36294 C 151.86769,375.05523 150.96769,376.39225 149.86769,377.3341 C 148.76769,378.27595 147.86769,379.93513 147.86769,381.02116 C 147.86769,383.31677 145.09139,385.06613 141.44799,385.06613 C 139.59239,385.06613 138.25519,384.05228 136.54349,381.34763 L 134.19009,377.62912 L 139.55439,375.44888 C 148.05949,371.99215 148.52849,371.29369 144.65059,367.85905 C 142.50499,365.95868 141.80079,364.76922 142.61769,364.42545 C 144.50559,363.63107 144.11619,360.23824 141.98439,358.90692 C 140.14089,357.75564 140.14079,357.66556 141.98069,354.64845 C 144.42739,350.63608 144.35819,350.06613 141.42429,350.06613 C 139.79139,350.06613 138.41539,349.109 137.27639,347.18084 C 136.33899,345.59393 134.11029,343.5985 132.32369,342.74654 L 129.07539,341.19754 L 128.58869,344.38183 C 128.32099,346.1332 128.53799,348.10892 129.07089,348.77233 C 130.55449,350.61911 128.98179,352.21975 126.02221,351.87518 C 123.77268,351.61328 123.41545,351.90939 123.68058,353.81613 C 123.87748,355.23217 123.47161,356.06613 122.58557,356.06613 C 121.81124,356.06613 120.39708,356.9287 119.443,357.98294 C 118.0273,359.54728 117.92261,360.30018 118.87369,362.07729 C 119.84798,363.89776 119.69707,364.61888 117.9534,366.47493 C 115.20573,369.39969 115.3217,370.88677 118.56113,374.268 C 121.82727,377.67712 120.77298,379.22172 115.86772,378.21401 C 111.2236,377.25995 110.9129,374.37254 114.28914,363.54377 C 115.70736,358.99505 116.86772,353.86709 116.86772,352.14831 C 116.86772,349.78534 117.47738,348.74547 119.36772,347.88418 C 122.80407,346.31847 122.80407,341.90521 119.36772,340.06613 C 117.99272,339.33025 116.86772,338.33529 116.86772,337.85511 C 116.86772,336.03471 123.4749,328.13181 125.86772,327.09014 C 127.24269,326.49155 129.31979,324.64519 130.48339,322.98711 L 132.59909,319.97242 L 135.83769,325.01927 C 138.37919,328.97988 139.64569,330.06943 141.72199,330.08144 C 143.17709,330.08986 144.97829,330.48365 145.72459,330.95652 C 147.57619,332.12976 146.37159,337.27038 143.88049,338.82611 C 142.26419,339.8355 141.72269,339.69718 140.50939,337.96498 C 139.58129,336.63984 138.22369,336.02063 136.71589,336.23474 C 134.80179,336.50653 134.40699,337.10895 134.58019,339.4939 C 134.90549,343.97276 137.08369,345.42142 144.17159,345.87274 C 150.16869,346.25461 150.59459,346.13192 152.29839,343.5316 C 153.59309,341.5556 153.96009,339.57795 153.60939,336.46656 C 153.23349,333.13172 153.53789,331.76966 154.94299,330.49803 C 156.64049,328.96182 157.27439,329.02212 164.31569,331.38955 C 172.09989,334.00677 172.82389,333.90742 170.51689,330.53864 C 169.77399,329.45376 168.86659,327.33324 168.50049,325.82638 C 167.96169,323.60917 166.99139,322.87426 163.41279,321.97317 C 160.98079,321.36077 158.21839,320.00616 157.27429,318.96292 C 155.65119,317.16935 155.65439,316.95934 157.33369,315.10378 C 159.45989,312.75429 164.77489,310.86613 169.26209,310.86613 C 171.05419,310.86613 175.73739,312.48613 179.66919,314.46613 C 186.66449,317.98891 194.27509,319.29552 195.03439,317.10406 C 195.23719,316.51864 199.02789,316.79228 204.71669,317.803 C 213.37999,319.34219 214.13289,319.34368 214.98379,317.82325 C 215.80779,316.35083 216.25599,316.33042 219.35269,317.62431 C 221.25069,318.41731 223.83049,319.07601 225.08559,319.08809 C 226.34079,319.10017 229.35809,320.01301 231.79069,321.11663 L 236.21359,323.12321 L 239.29069,320.16272 L 242.36769,317.20224 L 248.56619,319.88418 C 254.28379,322.35808 254.81429,322.85703 255.40409,326.31613 C 255.99399,329.77575 256.30289,330.06613 259.39279,330.06613 C 262.66609,330.06613 262.72899,330.14598 262.17039,333.58875 C 261.75679,336.13739 262.08009,337.64326 263.33959,339.03502 C 264.99999,340.86982 264.97809,341.10235 262.86499,344.06997 C 261.64649,345.78119 260.84499,347.37669 261.08379,347.61552 C 261.32259,347.85435 263.25589,348.65143 265.37999,349.38682 C 269.02049,350.64717 269.44649,351.24858 272.80489,359.86897 C 274.76449,364.89877 276.60379,369.02577 276.89239,369.04009 C 277.18099,369.05441 278.21549,365.18764 279.19119,360.44727 C 280.29299,355.09448 283.10009,347.13664 286.59879,339.44727 L 292.23219,327.06613 L 302.13169,327.06613 C 311.88589,327.06613 312.09229,327.11566 316.19939,330.4416 C 320.75879,334.13374 326.02039,337.06613 328.08589,337.06613 C 328.81059,337.06613 331.13229,335.89138 333.24519,334.45557 C 336.49319,332.24852 337.46379,332.01667 339.52439,332.95557 C 340.86499,333.56638 344.16949,334.06613 346.86769,334.06613 C 353.70699,334.06613 356.69809,335.64485 357.44969,339.6514 C 357.88559,341.97503 359.22219,343.7328 362.03589,345.68268 C 364.21999,347.19622 366.66209,349.70168 367.46299,351.25035 C 369.27319,354.75098 370.21569,354.79259 371.74359,351.43933 C 372.81529,349.08705 373.35459,348.86809 376.90389,349.34415 C 381.40099,349.94735 382.95959,348.72085 379.82659,347.04414 C 378.67319,346.42685 375.28089,343.70427 372.28799,340.99396 C 369.29519,338.28366 366.42429,336.06613 365.90819,336.06613 C 364.37569,336.06613 367.78399,328.74737 370.42639,326.3641 C 371.79989,325.12518 372.86769,323.04764 372.86769,321.6141 C 372.86769,318.74238 374.02009,318.33984 375.86769,320.56613 C 377.01539,321.94893 384.86769,322.79072 384.86769,321.53095 C 384.86769,319.96583 381.22959,315.83487 378.20479,313.96544 C 373.93719,311.32791 368.01109,311.95666 363.30489,315.54629 L 360.17499,317.93359 L 358.65729,314.74986 C 356.81989,310.89507 357.37289,304.41053 359.39589,306.08951 C 360.31199,306.84984 360.88229,306.85164 361.34949,306.09567 C 361.71239,305.50851 364.17129,303.93253 366.81369,302.5935 C 369.45619,301.25448 371.88519,299.46303 372.21159,298.61252 C 372.53789,297.76201 373.90579,297.06613 375.25129,297.06613 C 378.77009,297.06613 385.86769,287.99131 385.86769,283.49221 C 385.86769,281.21216 386.55389,279.6989 388.06909,278.63766 C 390.09359,277.2196 390.44669,277.26144 392.46629,279.15872 L 394.66219,281.22166 L 402.51499,277.58325 C 409.58969,274.30534 410.92099,274.00821 415.95169,274.5844 L 421.53569,275.22397 L 423.20169,270.86162 C 425.13509,265.79922 425.30059,263.45169 423.78999,262.51811 C 423.17509,262.13805 424.89259,260.38373 427.78999,258.43252 C 432.04509,255.567 432.86769,254.51652 432.86769,251.94853 C 432.86769,249.89179 434.01869,247.53942 436.36769,244.7951 C 438.29269,242.54617 439.86769,239.66213 439.86769,238.38613 C 439.86769,235.67548 440.57399,235.49029 442.89629,237.59197 C 444.41439,238.96585 444.81789,238.92706 446.94769,237.20245 L 449.31309,235.28708 L 446.94059,230.22162 C 444.93389,225.93737 444.29279,225.30344 442.78359,226.11115 C 441.80219,226.63639 440.25569,227.06613 439.34689,227.06613 C 438.43809,227.06613 434.43979,229.31613 430.46179,232.06613 C 423.85589,236.63282 418.86769,238.40629 418.86769,236.18825 C 418.86769,235.70542 419.54269,233.69488 420.36769,231.72037 C 422.25179,227.21121 422.26469,227.34894 419.83639,226.04936 C 418.06379,225.10069 416.46869,226.08331 407.31309,233.76418 C 401.54249,238.60525 395.67289,244.29492 394.26949,246.40789 C 391.34089,250.81732 390.58129,250.74823 391.49979,246.15597 C 392.01719,243.56869 393.21189,242.32461 397.50669,239.90079 C 402.27999,237.20693 402.86769,236.51635 402.86769,233.60195 L 402.86769,230.32869 L 397.31379,231.61976 C 394.25909,232.32984 391.12879,233.43451 390.35759,234.07456 C 388.69479,235.45453 386.86769,234.57714 386.86769,232.3987 C 386.86769,231.29833 386.21569,231.00607 384.61769,231.39023 C 372.57089,234.28635 370.12059,234.43018 362.25869,232.70267 C 357.95549,231.7571 354.17889,230.56956 353.86619,230.06368 C 353.55359,229.55779 351.06349,228.15898 348.33269,226.9552 C 340.51849,223.51051 336.77739,220.27442 337.46089,217.55108 C 337.82419,216.10332 337.50099,214.9479 336.58289,214.4129 C 335.78359,213.94718 334.81549,212.55363 334.43129,211.31613 C 333.78819,209.24399 334.04599,209.06613 337.69339,209.06613 C 341.88309,209.06613 342.86769,208.00393 342.86769,203.48434 C 342.86769,201.69523 343.41349,201.06613 344.96549,201.06613 C 346.20849,201.06613 349.00529,198.96488 351.82959,195.90915 L 356.59579,190.75216 L 367.84999,191.34587 C 377.21689,191.84002 379.46159,192.27529 381.23589,193.94161 C 382.93989,195.54184 384.22559,195.8285 387.64209,195.36994 C 389.99299,195.05441 392.13579,194.44138 392.40389,194.00766 C 393.12179,192.84606 387.12879,188.87043 383.50309,188.10301 C 380.38849,187.44379 380.38499,187.43594 382.97329,186.91904 C 384.96869,186.52054 386.92119,187.4135 391.31119,190.73241 C 397.70089,195.56319 398.37659,195.78841 399.29549,193.39385 C 400.30959,190.75114 393.35109,184.38503 384.61769,179.96561 C 376.46889,175.84199 374.53499,173.06613 379.81099,173.06613 C 381.70319,173.06613 383.30049,172.28631 384.28379,170.88256 C 385.65649,168.92269 386.06719,168.83493 388.29249,170.02587 C 389.97649,170.92714 392.50279,171.14932 396.16829,170.71852 C 399.94079,170.27513 402.98069,170.56676 406.27039,171.68767 C 411.59879,173.50324 412.36979,173.20264 411.47979,169.6565 C 411.00819,167.77761 409.98119,166.99043 407.35969,166.49864 C 404.55709,165.97288 403.86769,165.3836 403.86769,163.51386 C 403.86769,160.42759 404.90969,159.93097 408.95229,161.09038 C 411.77969,161.90128 412.63999,161.73828 414.30149,160.07685 C 416.27459,158.10373 416.27429,158.08763 414.22559,155.33157 C 411.54349,151.72327 406.49469,151.02611 404.88109,154.04123 L 403.76149,156.13314 L 398.91919,153.49764 C 394.40229,151.03924 392.86769,148.65111 392.86769,144.08042 C 392.86769,143.67578 395.12849,143.07696 397.89159,142.74971 C 405.01259,141.90634 405.49669,141.32369 402.08499,137.7034 C 400.45889,135.9779 397.86369,132.36335 396.31799,129.67106 L 393.50769,124.776 L 397.18769,125.46638 L 400.86769,126.15676 L 400.86769,120.61144 C 400.86769,115.14527 400.90959,115.06613 403.79959,115.06613 C 405.98039,115.06613 407.30649,114.23349 408.97579,111.81613 C 410.21009,110.02863 411.32719,108.41717 411.45829,108.23511 C 411.58929,108.05305 412.63499,108.40638 413.78209,109.02029 C 416.10489,110.26342 416.36699,109.5095 414.92799,105.72452 C 414.10909,103.57081 414.30339,103.17361 416.43739,102.63801 L 418.88649,102.02331 L 416.78699,97.907855 C 414.78799,93.989565 414.76589,93.619281 416.32449,90.179263 C 417.22489,88.192044 418.72799,85.5697 419.66469,84.35183 C 421.30339,82.221108 421.62739,82.182432 428.24789,83.327235 L 435.12799,84.516948 L 438.13169,81.041543 C 439.84639,79.057494 440.79039,78.424373 440.33139,79.566138 C 439.88929,80.666138 439.33379,83.478638 439.09689,85.816138 C 438.67699,89.961183 438.73989,90.066138 441.64459,90.066138 C 444.95259,90.066138 446.14809,88.965915 447.54299,84.637581 C 448.62589,81.277199 449.21379,80.901022 457.36769,78.351051 L 463.36769,76.47467 L 464.05679,70.273524 C 464.86179,63.029231 465.31589,62.066138 467.92679,62.066138 C 470.82229,62.066138 473.86769,65.654406 473.86769,69.066138 C 473.86769,71.818242 474.15209,72.066138 477.30869,72.066138 C 481.48999,72.066138 482.07519,72.855887 480.90859,76.923766 C 480.03959,79.953658 480.11579,80.066138 483.03629,80.066138 L 486.06529,80.066138 L 483.96649,83.623298 C 482.81219,85.579736 481.86769,87.332346 481.86769,87.517987 C 481.86769,87.703628 483.44519,87.499746 485.37319,87.064915 C 489.80939,86.064384 492.52859,82.741875 493.34749,77.321511 C 494.03349,72.780306 492.87159,70.158003 488.95939,67.417781 C 487.80899,66.612003 486.86769,64.880411 486.86769,63.569799 C 486.86769,61.538033 487.42039,61.141131 490.61769,60.876503 C 493.36329,60.649272 494.62989,59.968586 495.34659,58.335298 C 496.53159,55.634632 498.86769,54.529428 498.86769,56.669453 C 498.86769,57.516753 497.72879,60.153366 496.33689,62.528594 L 493.80599,66.84719 L 495.93559,70.456664 C 497.43369,72.995701 498.77139,74.066138 500.44629,74.066138 C 504.26959,74.066138 510.61819,77.036303 512.30829,79.615746 C 513.34439,81.197085 513.86769,84.336826 513.86769,88.971938 C 513.86769,92.808829 514.25929,96.190135 514.73799,96.485945 C 515.21659,96.781755 517.00269,93.701691 518.70709,89.641358 L 521.80599,82.258933 L 519.33679,76.182406 C 517.97879,72.840316 516.86769,68.31277 516.86769,66.121192 C 516.86769,63.205105 516.34899,61.858893 514.93349,61.101322 C 511.97009,59.515378 511.86979,59.668076 511.83729,65.816138 C 511.81409,70.209745 511.56649,71.153323 510.78759,69.816138 C 510.22699,68.853638 508.74419,68.066138 507.49239,68.066138 C 506.24059,68.066138 504.25509,67.042874 503.08009,65.792217 L 500.94389,63.518297 L 505.03949,58.726898 C 508.92779,54.177895 509.32819,53.968145 512.95449,54.580803 C 516.60179,55.196999 516.84029,55.067622 518.24209,51.71254 C 519.05319,49.771421 521.01459,47.524418 522.62489,46.691708 L 525.53959,45.184443 L 527.71379,51.375291 C 530.40399,59.035622 530.41059,60.56357 527.76779,63.908409 L 525.66789,66.566138 L 530.61649,71.066138 C 536.74129,76.635744 542.86769,86.114181 542.86769,90.020456 C 542.86769,94.929025 541.23629,97.826285 538.08209,98.519055 C 536.48399,98.870055 534.17679,100.50935 532.95499,102.16194 C 531.73319,103.81453 529.69399,105.5619 528.42339,106.04498 C 527.15279,106.52806 525.63139,108.30545 525.04249,109.99472 C 524.09419,112.71488 524.18709,113.06613 525.85469,113.06613 C 526.89019,113.06613 528.92129,112.61607 530.36809,112.06599 C 533.27389,110.96121 536.86769,112.23638 536.86769,114.3722 C 536.86769,115.05184 534.84639,116.71209 532.37589,118.06165 C 528.22539,120.32897 521.86769,127.51111 521.86769,129.93255 C 521.86769,130.50426 522.37639,132.08839 522.99809,133.45284 C 524.11759,135.90996 524.21879,135.84324 533.59389,126.46819 C 538.91089,121.15121 545.18829,115.92389 547.91699,114.54119 C 551.86659,112.53974 552.88779,111.47092 553.38039,108.82289 C 553.74249,106.87631 553.39489,104.15644 552.51629,102.06201 C 551.43019,99.473015 551.27279,97.383745 551.91349,94.062015 C 553.55029,85.575445 553.09049,82.45316 549.34019,76.59058 C 547.40009,73.557665 544.64609,70.311813 543.22029,69.377577 C 540.81909,67.804227 540.66909,67.280041 541.18619,62.269362 C 541.49329,59.294081 542.44729,56.083262 543.30609,55.134208 C 544.19619,54.150654 544.86769,51.614991 544.86769,49.237397 C 544.86769,45.551446 545.13529,45.066138 547.16769,45.066138 C 548.43269,45.066138 549.95959,44.574244 550.56079,43.97304 C 551.35159,43.182243 552.34149,43.330444 554.14009,44.508925 C 556.35589,45.960788 556.69029,45.97091 557.21559,44.602023 C 557.53969,43.757286 558.72299,43.066138 559.84499,43.066138 C 560.96699,43.066138 563.74869,41.716138 566.02639,40.066138 C 568.30419,38.416138 570.77529,37.066138 571.51779,37.066138 C 573.16019,37.066138 573.28769,39.246123 571.73609,40.797734 C 570.31079,42.223057 575.28219,44.451332 582.20299,45.48917 L 587.00509,46.209287 L 586.68639,42.97178 C 586.41519,40.216073 585.82519,39.572944 582.72229,38.650206 C 578.24249,37.317985 570.45659,28.066138 573.81529,28.066138 C 574.87919,28.066138 575.99629,27.667126 576.29769,27.179445 C 576.99369,26.053378 575.09379,24.481429 569.72119,21.738061 C 561.18449,17.379054 564.77399,15.515509 574.86769,19.066138 C 577.89269,20.130228 581.87489,21.015537 583.71699,21.033492 C 587.97829,21.075028 598.86769,27.614168 598.86769,30.131549 C 598.86769,32.913962 603.12359,37.300788 610.85609,42.488685 C 615.42109,45.551469 618.54339,47.02084 619.61379,46.610086 C 620.52869,46.259002 622.64759,46.645467 624.32249,47.468899 C 625.99739,48.29233 629.95519,49.725168 633.11769,50.652982 C 638.53459,52.242185 638.86639,52.520278 638.84549,55.453028 C 638.81589,59.600422 636.23799,62.567821 631.36769,64.060606 C 629.16769,64.734932 620.51039,69.399537 612.12929,74.426396 C 597.51219,83.193466 596.82869,83.74822 595.36649,88.03168 C 594.52819,90.487728 592.52509,93.862728 590.91519,95.531675 C 588.74509,97.781415 587.80649,99.950085 587.28559,103.91775 L 586.58309,109.26938 L 595.08939,108.5608 C 602.51009,107.94267 604.19919,108.11915 608.32359,109.94358 C 612.14999,111.6362 613.81469,111.86344 617.05469,111.13545 C 622.72069,109.86239 625.86769,106.60532 625.86769,102.01426 C 625.86769,99.861085 626.52819,97.762855 627.44569,97.001395 C 630.41939,94.533515 633.74619,86.370477 635.40589,77.469851 C 636.31899,72.572809 637.21479,68.410262 637.39659,68.219747 C 637.57839,68.029231 639.75239,69.266731 642.22759,70.969747 C 647.13949,74.34922 650.20779,74.661984 664.42929,73.23288 C 670.25199,72.647763 672.71879,71.781406 678.48939,68.294703 C 682.33859,65.968992 686.71629,64.066138 688.21769,64.066138 C 689.71899,64.066138 692.71159,63.166138 694.86769,62.066138 C 697.02389,60.966138 699.84679,60.066138 701.14079,60.066138 C 702.46839,60.066138 704.77329,58.721457 706.43059,56.980082 C 710.26779,52.948271 712.67279,51.671849 714.18169,52.866354 C 716.43899,54.653437 723.01819,55.175894 728.32109,53.989163 C 732.91669,52.960703 733.96569,53.021332 735.97939,54.43181 C 737.26269,55.33069 739.92839,56.066138 741.90319,56.066138 C 744.59849,56.066138 746.22039,56.824836 748.40929,59.109525 C 751.17379,61.995046 751.61149,62.11869 756.84639,61.493172 C 760.30689,61.079681 763.21009,60.062931 764.62449,58.769138 L 766.88119,56.704844 L 772.85429,59.559719 C 779.69459,62.829062 783.12079,66.031918 785.26249,71.159005 C 786.56759,74.283392 786.58909,75.99874 785.42769,84.314385 C 784.69309,89.573768 784.32939,95.982765 784.61959,98.556615 C 785.14539,103.22193 785.15699,103.23444 788.40359,102.62538 C 790.19469,102.28937 792.83189,102.54831 794.26399,103.2008 C 796.59929,104.26484 796.86769,104.94179 796.86769,109.76648 C 796.86769,113.2328 796.13169,116.58859 794.79799,119.20287 C 793.65959,121.43426 792.87209,123.39554 793.04799,123.56128 C 793.22379,123.72702 796.51769,124.69969 800.36769,125.72278 C 806.69309,127.40366 807.46659,127.888 808.39349,130.74807 C 808.95769,132.48889 810.23339,134.81268 811.22829,135.91205 C 812.22319,137.01142 813.27719,139.7002 813.57059,141.88713 C 814.02879,145.30349 814.51299,145.94518 817.00939,146.44446 C 818.60749,146.76407 820.15979,147.8222 820.45909,148.79585 C 820.75839,149.7695 821.87279,152.49067 822.93549,154.84288 C 823.99819,157.19509 824.86769,160.57813 824.86769,162.36075 C 824.86769,167.25408 829.21439,173.06613 832.87389,173.06613 C 835.24859,173.06613 836.24269,173.82722 838.08789,177.05776 C 840.44629,181.18694 841.51889,181.5663 843.21819,178.87233 C 844.40359,176.99303 841.41579,172.92639 835.61769,168.52752 C 831.01669,165.03682 830.38649,161.06613 834.43349,161.06613 C 838.24999,161.06613 840.44609,162.59291 843.94569,167.67943 C 846.74679,171.75064 847.04939,172.86227 846.65409,177.62845 C 846.05849,184.8113 841.09559,194.44322 837.76449,194.8814 C 836.44629,195.0548 831.90979,196.7994 827.68339,198.75828 C 820.35049,202.15702 819.74669,202.6991 814.48019,210.61285 C 809.56279,218.00208 809.05669,219.23834 809.83649,221.95725 C 811.09149,226.33324 816.01589,235.09261 816.91019,234.53988 C 817.32629,234.28271 818.22089,231.70841 818.89819,228.81921 C 820.41069,222.36709 820.69709,222.00263 828.79209,216.22576 C 835.25029,211.61698 835.41189,211.56498 843.60569,211.4611 C 849.28999,211.38903 852.43559,210.89678 853.62879,209.89264 C 854.83819,208.87481 856.96439,208.55543 860.61149,208.84376 C 865.40329,209.22258 866.23119,209.67648 870.21789,214.1107 C 874.10439,218.4334 874.64089,219.62795 875.13289,225.05375 C 875.62059,230.43252 876.16339,231.66321 879.77649,235.58293 C 883.50649,239.62955 883.86769,240.49586 883.86769,245.39456 C 883.86769,252.11889 885.41989,256.98173 888.39109,259.56613 C 890.55679,261.44984 891.25039,263.47791 890.98289,267.14469 C 890.91959,268.01289 889.45539,270.85551 887.72919,273.46162 L 884.59059,278.2 L 886.72919,281.09257 C 889.87539,285.34808 889.52249,289.04277 885.66729,292.21131 C 883.16209,294.27025 882.69719,295.15674 883.56959,296.21131 C 884.73179,297.61615 884.22499,302.72729 882.83859,303.58415 C 881.06299,304.68154 879.14089,302.72704 877.49529,298.15071 C 876.53739,295.48703 874.69309,292.31124 873.39679,291.0934 L 871.03979,288.87914 L 872.92179,283.40901 C 875.26449,276.59993 875.60029,267.75052 873.87399,258.31613 C 872.72039,252.0117 872.27079,251.06613 870.42629,251.06613 C 869.15759,251.06613 865.90629,248.63853 862.33639,245.02584 C 856.64219,239.26328 856.16519,238.9989 851.96309,239.27584 C 847.81929,239.54894 847.47789,239.79981 846.19749,243.51239 C 844.83829,247.45356 844.84159,247.46386 848.78229,251.51239 C 852.58719,255.4214 852.67589,255.66431 851.26599,258.31613 C 849.85119,260.97702 849.88589,261.06613 852.33579,261.06613 C 854.45849,261.06613 854.86769,261.53128 854.86769,263.94369 C 854.86769,265.52634 855.56729,267.40183 856.42229,268.11144 C 859.81369,270.92603 860.02529,272.8459 857.83779,280.95309 C 856.11579,287.33482 854.98369,289.52345 851.79329,292.63877 C 848.79469,295.56685 847.86769,297.25058 847.86769,299.76908 C 847.86769,301.58246 848.10009,303.06613 848.38409,303.06613 C 848.66809,303.06613 853.23039,301.04271 858.52259,298.56963 L 868.14489,294.07314 L 870.32549,296.42602 C 871.52479,297.7201 873.01579,298.95603 873.63869,299.17251 C 874.26169,299.389 875.19869,302.26613 875.72089,305.56613 C 876.65879,311.49346 876.61579,311.6721 872.16779,320.31613 C 867.82489,328.75583 867.54289,329.06613 864.21449,329.06613 C 861.27929,329.06613 860.60739,329.51442 859.71789,332.06613 C 858.49159,335.58393 858.17099,335.65002 854.86769,333.06613 C 852.09739,330.89918 844.03779,330.38592 837.86769,331.98353 C 835.94269,332.48196 832.29019,333.17303 829.75099,333.51924 C 825.60409,334.08465 824.97409,334.52615 823.56069,337.85742 C 822.57429,340.18236 822.03329,344.17792 822.11089,348.56613 C 822.23329,355.48878 821.09209,362.15141 818.22469,371.25447 C 816.93629,375.34502 816.03359,376.34599 811.14519,379.10483 C 808.06359,380.84394 803.44709,384.41796 800.88629,387.0471 C 794.37069,393.73634 790.70309,395.49694 786.30649,394.04592 C 782.21729,392.69636 781.91649,391.52168 785.43419,390.63881 C 787.14459,390.20952 787.89439,389.42289 787.68199,388.2804 C 787.44419,387.00056 785.40889,386.19183 779.65079,385.08913 C 772.59799,383.73849 771.78739,383.33214 770.17559,380.33913 C 768.53439,377.29169 768.05689,377.06613 763.24729,377.06613 C 758.13939,377.06613 756.86769,377.93729 756.86769,381.43663 C 756.86769,382.10044 759.35759,384.15259 762.40079,385.99697 C 765.44409,387.84135 768.82519,390.60202 769.91449,392.1318 C 771.00379,393.66158 773.12639,395.18434 774.63139,395.51572 C 777.47399,396.14162 780.86769,400.77277 780.86769,404.02585 C 780.86769,408.82375 768.71049,408.99183 760.08059,404.31323 C 756.43749,402.33817 753.45919,401.64932 746.95939,401.27847 C 739.02449,400.82572 738.59459,400.90476 739.32289,402.68242 C 740.97249,406.70895 740.92949,407.83547 738.93199,412.90301 C 737.68909,416.05647 736.86769,420.43822 736.86769,423.91606 C 736.86769,429.05608 737.20529,430.01529 739.93379,432.62904 C 741.62009,434.24444 744.19749,437.45904 745.66139,439.7726 C 748.09809,443.62395 748.76799,444.03469 753.59529,444.63783 L 758.86769,445.29658 L 758.86769,450.36036 C 758.86769,456.28899 760.70689,462.06613 762.59429,462.06613 C 763.63569,462.06613 763.57799,462.7257 762.32459,465.14956 C 761.09009,467.53682 760.84059,470.18968 761.21949,476.89956 C 762.25649,495.26147 765.32739,506.91067 769.75079,509.26259 C 771.09919,509.97954 773.73239,512.95438 775.60239,515.87335 C 779.20869,521.50267 779.30019,521.5667 785.11769,522.53353 C 788.11419,523.03153 788.87409,523.59975 788.89949,525.36144 C 788.91699,526.57402 789.59199,528.43964 790.39949,529.50726 C 791.20699,530.57488 791.86769,533.39372 791.86769,535.77136 C 791.86769,539.36815 791.32179,540.59691 788.61769,543.08626 C 785.74619,545.72979 785.56249,546.19469 787.04029,547.07853 C 788.54929,547.98103 788.37819,548.72105 785.29029,554.64516 C 781.41599,562.07805 781.31289,562.73683 783.31209,567.2822 C 784.10649,569.08836 785.02689,572.25363 785.35739,574.31613 C 785.91979,577.82552 786.18419,578.06613 789.47879,578.06613 C 794.23159,578.06613 796.86769,579.64595 796.86769,582.49432 C 796.86769,586.03735 794.41459,586.29707 791.98529,583.01124 C 790.80869,581.41978 788.38839,579.73389 786.60689,579.26483 C 783.70599,578.50105 782.87439,578.82573 778.64329,582.37405 C 774.54309,585.81259 773.45299,586.26051 770.39329,585.76399 C 765.39499,584.95288 765.78389,586.50463 772.96779,596.03845 C 777.48799,602.03717 780.31859,604.76766 783.89699,606.58098 C 786.55309,607.9269 788.95689,609.40131 789.23879,609.85747 C 789.52069,610.31362 789.26859,612.5888 788.67849,614.91342 C 787.70389,618.75319 787.89229,619.76168 790.73669,625.93282 C 792.88079,630.58443 793.86769,634.25461 793.86769,637.57617 C 793.86769,641.5044 794.60699,643.58081 797.75569,648.49641 C 803.62769,657.66331 804.59979,664.63656 801.95259,678.60136 L 799.88299,689.51873 L 804.78629,694.54243 L 809.68959,699.56613 L 804.27869,710.96393 C 800.43139,719.0679 798.86769,723.56082 798.86769,726.51099 C 798.86769,730.05484 798.27149,731.23699 794.78129,734.61318 C 792.53379,736.7873 789.60969,740.68692 788.28329,743.27899 C 786.05219,747.63912 785.93739,748.57468 786.75019,755.77899 L 787.62869,763.56613 L 783.38829,769.06613 C 776.08529,778.53839 774.86769,781.80754 774.86769,791.94339 C 774.86769,798.67838 775.36389,802.05776 776.86769,805.56613 C 780.71329,814.53755 780.31269,815.69412 765.30499,838.94488 L 751.74219,859.95706 L 751.55499,867.86871 L 751.36769,875.78036 L 748.37429,874.92324 C 743.03859,873.39545 740.15969,873.84722 739.49799,876.31613 C 737.51169,883.7279 740.42989,890.7653 745.11799,889.86912 C 747.50359,889.41308 747.67099,889.66691 748.12929,894.43613 C 748.50539,898.35029 749.14899,899.82794 750.99109,901.00627 C 752.29829,901.84241 754.85109,903.9738 756.66409,905.74271 L 759.96049,908.95891 L 757.41409,912.99265 C 756.01359,915.2112 754.86769,918.1445 754.86769,919.51107 C 754.86769,920.94416 754.04909,922.43389 752.93349,923.03095 C 750.12769,924.53255 749.86769,924.37462 749.86769,921.16858 L 749.86769,918.27103 L 739.98739,918.47516 C 732.24069,918.63521 729.48739,919.08565 727.23739,920.56103 C 725.65909,921.59599 722.09179,922.9723 719.31019,923.61951 C 714.84809,924.65771 713.99269,924.58572 712.04429,923.00801 C 709.70659,921.11507 696.84049,916.59665 690.73919,915.52591 C 688.25129,915.08929 686.09339,915.41519 683.87429,916.56273 C 681.54749,917.76596 680.33299,917.93136 679.55279,917.15123 C 678.77269,916.3711 678.80119,916.06613 679.65429,916.06613 C 681.61029,916.06613 683.96819,909.11867 683.27189,905.407 C 682.92719,903.56952 682.32499,902.06613 681.93369,902.06613 C 681.54239,902.06613 680.21089,904.09113 678.97479,906.56613 C 676.96619,910.58795 676.36299,911.06613 673.29759,911.06613 C 670.04439,911.06613 669.86769,911.24643 669.86769,914.56613 C 669.86769,916.70033 670.35549,918.0655 671.11769,918.06451 C 671.94259,918.06344 672.36769,919.67902 672.36769,922.81451 C 672.36769,928.02578 671.51599,928.87804 666.19029,928.99584 C 662.63119,929.07457 659.73259,932.0325 657.69639,937.66343 C 657.01969,939.53491 655.88139,941.06613 655.16679,941.06613 C 653.17619,941.06613 653.59319,939.68655 656.80569,935.64419 C 659.50149,932.25197 659.71709,931.39575 659.42089,925.25669 C 659.11179,918.84753 658.90019,918.35195 654.38939,913.47373 C 648.52389,907.13045 647.90209,906.14629 647.88299,903.17637 C 647.86759,900.76356 645.42129,898.15654 643.11769,898.09793 C 641.39299,898.05405 641.51799,903.98496 643.33349,908.32999 C 644.25239,910.52918 644.71879,914.50603 644.58349,918.98857 C 644.42729,924.16504 644.74759,926.3738 645.74359,926.98942 C 646.84419,927.66961 646.51089,928.72446 644.07799,932.26048 C 639.95549,938.25239 639.24379,938.69519 632.52399,939.44959 L 626.68019,940.10564 L 628.84429,936.60412 C 631.41569,932.44343 631.00419,931.47588 626.08159,930.10873 C 620.99539,928.69614 620.86769,928.73183 620.86769,931.56613 C 620.86769,933.67724 620.40109,934.06613 617.86769,934.06613 C 616.21769,934.06613 614.86769,934.53762 614.86769,935.11388 C 614.86769,935.69014 613.74319,937.2038 612.36879,938.47756 C 610.07659,940.60194 609.43559,940.71346 604.61879,939.82585 C 601.73069,939.29365 596.44269,939.16465 592.86769,939.53917 C 589.29269,939.9137 583.66769,940.37722 580.36769,940.5692 C 573.08279,940.99303 562.97549,944.04961 559.30079,946.94013 C 557.81429,948.10943 555.50409,949.06613 554.16709,949.06613 C 551.35689,949.06613 548.24949,950.51494 545.28679,953.20661 C 543.24369,955.06276 543.17259,955.06049 541.38179,953.08165 C 540.36729,951.96067 538.29509,951.06613 536.71269,951.06613 C 534.07329,951.06613 533.86769,951.34737 533.86769,954.95914 C 533.86769,957.4971 534.38979,959.0525 535.36769,959.42776 C 536.19269,959.74434 536.86769,960.69248 536.86769,961.53475 C 536.86769,962.65469 537.94239,963.06613 540.86769,963.06613 C 545.34849,963.06613 545.62659,963.56054 543.11769,967.06694 C 542.15519,968.41214 540.24269,971.74973 538.86769,974.48381 C 536.07509,980.03668 531.63339,982.90866 521.76679,985.54102 C 516.79399,986.86775 516.06149,987.4015 515.23499,990.30073 C 514.02849,994.53292 509.83009,995.31882 506.27409,991.97813 C 503.94939,989.79426 503.83689,989.7841 501.85329,991.57923 C 500.35869,992.93182 498.50419,993.36133 494.87389,993.19569 C 490.20009,992.98242 489.89639,993.12297 489.31529,995.76812 C 488.21879,1000.7599 487.90489,1001.2258 484.86549,1002.3731 C 481.21309,1003.7517 481.09179,1005.6259 484.36769,1010.0661 C 485.74269,1011.9298 486.86769,1013.5391 486.86769,1013.6423 C 486.86769,1013.7455 482.70519,1014.5836 477.61769,1015.5047 C 470.47569,1016.7979 467.57959,1017.8262 464.90909,1020.0173 C 461.71369,1022.6392 461.54249,1023.0569 462.65909,1025.5076 C 464.27639,1029.0571 464.18269,1030.0661 462.23579,1030.0661 C 461.33819,1030.0661 459.06939,1031.0144 457.19409,1032.1734 C 454.43899,1033.8762 452.91159,1034.1498 449.23729,1033.5988 C 445.68459,1033.0661 444.28109,1033.287 442.82039,1034.609 C 441.44249,1035.8559 438.90099,1036.3444 433.15919,1036.4659 C 428.87389,1036.5566 424.80519,1036.2237 424.11769,1035.726 C 420.94649,1033.4305 423.86069,1029.3229 432.61769,1023.7449 C 436.38679,1021.344 436.86769,1020.6114 436.86769,1017.2697 L 436.86769,1013.5016 L 429.11769,1013.5488 C 423.28199,1013.5843 420.68589,1014.0547 418.60719,1015.453 C 415.84959,1017.3079 415.83819,1017.3059 408.26889,1013.6149 C 404.10119,1011.5826 400.14279,1010.1303 399.47259,1010.3875 C 398.80239,1010.6447 397.55169,1012.6431 396.69329,1014.8284 L 395.13249,1018.8016 L 401.54089,1019.4 C 409.16779,1020.1123 409.86769,1020.4624 409.86769,1023.5661 C 409.86769,1024.8762 410.26859,1026.1958 410.75849,1026.4986 C 411.24839,1026.8014 412.77479,1029.2016 414.15039,1031.8326 L 416.65159,1036.616 L 414.25969,1039.3968 C 412.67989,1041.2334 411.86309,1043.432 411.85409,1045.8719 C 411.83229,1051.7526 410.88129,1053.8657 407.76759,1054.9512 C 406.17269,1055.5072 404.86769,1056.6605 404.86769,1057.5141 C 404.86769,1058.5591 403.92269,1059.0661 401.97469,1059.0661 C 400.32559,1059.0661 398.83419,1059.7111 398.50609,1060.5661 C 398.18949,1061.3911 396.78679,1062.0661 395.38889,1062.0661 C 393.99099,1062.0661 390.52009,1063.7018 387.67589,1065.7009 C 382.66439,1069.2235 382.45449,1069.2776 380.88579,1067.4509 C 379.99549,1066.4143 377.98949,1064.4411 376.42799,1063.0661 L 373.58879,1060.5661 L 374.25039,1064.8806 C 374.78789,1068.3855 374.50719,1069.7636 372.75499,1072.2244 C 370.85579,1074.8916 370.67059,1076.1091 371.20519,1082.4099 L 371.81249,1089.5661 L 369.81619,1085.8161 L 367.81999,1082.0661 L 357.46629,1082.0661 C 350.09189,1082.0661 346.79629,1082.4473 346.01319,1083.3908 C 345.40849,1084.1194 344.82389,1088.1986 344.71399,1092.4557 L 344.51409,1100.1959 L 339.94089,1099.881 C 336.65699,1099.6549 334.85449,1098.9325 333.54719,1097.3187 C 332.17319,1095.6226 331.29859,1095.3003 329.98189,1096.005 C 328.94019,1096.5625 326.67609,1096.5867 324.36369,1096.0652 C 319.32539,1094.9289 314.72899,1095.8805 314.12649,1098.1846 C 313.86539,1099.183 312.83169,1100.2602 311.82929,1100.5783 C 310.82689,1100.8965 309.71469,1102.4864 309.35779,1104.1114 C 308.91369,1106.1334 308.10259,1107.0661 306.78829,1107.0661 C 305.73199,1107.0661 303.96769,1107.9661 302.86769,1109.0661 C 301.76769,1110.1661 300.68719,1111.0661 300.46649,1111.0661 C 300.24579,1111.0661 299.15249,1109.519 298.03679,1107.6282 C 295.32549,1103.0328 290.43869,1100.4849 287.18209,1101.9687 C 283.82899,1103.4965 279.61659,1103.3397 273.09719,1101.4444 C 267.84609,1099.9179 267.44329,1099.9261 266.23079,1101.5843 C 265.14799,1103.065 265.25559,1103.7437 266.90519,1105.8409 C 269.50299,1109.1435 269.38029,1110.6842 266.36179,1112.6619 C 264.24909,1114.0462 263.38599,1114.1092 260.86089,1113.0633 C 256.99259,1111.461 254.86769,1113.0391 254.86769,1117.5142 C 254.86769,1121.9048 250.99119,1125.5649 247.31759,1124.6429 C 245.85409,1124.2756 244.42669,1123.0955 244.14559,1122.0206 C 243.86449,1120.9456 242.89949,1120.06 242.00109,1120.0524 C 241.10279,1120.0449 239.30399,1119.7541 238.00389,1119.406 C 235.93569,1118.8524 235.72539,1119.0423 236.32279,1120.9246 C 236.82099,1122.4942 236.51379,1123.2575 235.18669,1123.7474 C 234.18629,1124.1167 231.92659,1125.5016 230.16519,1126.825 C 226.08209,1129.8927 223.68709,1129.4185 222.50849,1125.3092 C 221.99699,1123.5255 220.98429,1122.0661 220.25829,1122.0661 C 217.94489,1122.0661 216.77189,1118.5713 218.37469,1116.4542 C 219.16089,1115.4158 219.80419,1112.9911 219.80429,1111.0661 C 219.80449,1107.9787 219.26289,1107.2372 215.20969,1104.7759 C 212.68249,1103.2412 210.40179,1102.1987 210.14129,1102.4592 C 209.88079,1102.7197 209.66769,1104.5217 209.66769,1106.4638 C 209.66769,1109.2262 209.19969,1110.124 207.51769,1110.5884 C 206.33519,1110.9149 203.67919,1111.8997 201.61539,1112.7769 C 198.15929,1114.2461 197.71899,1114.2415 196.03669,1112.719 C 193.55329,1110.4715 193.40969,1110.5378 191.47789,1114.8218 C 189.73899,1118.678 185.19959,1122.0661 181.77199,1122.0661 C 180.11189,1122.0661 176.67789,1117.9438 175.54779,1114.5943 C 175.36739,1114.0598 172.41229,1116.0645 168.98069,1119.0491 C 164.43959,1122.9989 162.87509,1124.9864 163.23229,1126.3522 C 163.84129,1128.6809 158.09619,1131.3963 152.92099,1131.2258 C 150.99319,1131.1623 148.67959,1131.8314 147.67099,1132.7441 C 146.10649,1134.16 145.86769,1134.1748 145.86769,1132.8559 z M 201.94949,974.06613 C 205.76079,974.06613 205.86769,973.97062 205.86769,970.56613 C 205.86769,968.50671 205.37279,967.06613 204.66529,967.06613 C 204.00399,967.06613 202.09149,965.77648 200.41529,964.20024 C 197.61199,961.56402 192.24659,959.06613 189.38749,959.06613 C 188.73749,959.06613 187.61949,960.16145 186.90299,961.50017 C 185.69409,963.75914 185.94519,964.3378 190.39439,969.54564 C 193.38219,973.04289 195.72389,974.95155 196.60979,974.6116 C 197.39159,974.31159 199.79449,974.06613 201.94949,974.06613 z M 393.59909,745.59615 C 394.82639,743.70127 396.11939,740.21934 396.47259,737.85852 C 396.85789,735.28232 398.06479,732.65035 399.49109,731.27566 C 400.89199,729.92558 401.86769,727.82524 401.86769,726.15994 C 401.86769,723.3738 401.92659,723.34606 406.11769,724.15685 C 408.45519,724.60905 412.28019,724.99863 414.61769,725.02258 L 418.86769,725.06613 L 418.86769,721.1881 C 418.86769,718.27845 419.42959,716.93476 421.11769,715.80706 C 423.17859,714.43038 423.23829,714.14697 421.82769,712.43509 C 419.72519,709.88354 419.99839,694.69124 422.19069,692.24631 C 423.01939,691.32221 424.09989,688.9983 424.59199,687.08207 C 425.33559,684.18603 426.57359,682.98481 431.92719,679.96482 C 439.32409,675.79214 440.94749,672.56826 436.18269,671.514 C 434.63439,671.17146 432.91769,670.76427 432.36769,670.60915 C 431.81769,670.45402 430.65659,670.94405 429.78739,671.6981 C 428.59009,672.73671 427.06369,672.85552 423.49149,672.18815 C 418.82579,671.31651 418.75009,671.34536 416.32189,674.9188 C 413.44429,679.15347 413.28259,680.76205 415.48899,683.20014 C 417.48149,685.40176 416.63019,688.06613 413.93429,688.06613 C 412.83639,688.06613 411.47329,688.9347 410.90509,689.99629 C 410.33699,691.05788 408.85859,692.07038 407.61989,692.24629 C 404.21899,692.72926 404.19159,697.06861 407.55169,703.0461 C 410.73349,708.70627 410.41309,710.04492 404.99279,713.73741 C 402.38309,715.51524 401.22349,715.74175 398.59329,714.98741 C 391.73799,713.02135 388.58749,713.75702 384.04619,718.38425 C 379.85239,722.65745 379.82899,722.72112 381.79859,724.50354 C 383.11059,725.69095 384.81149,726.15462 386.78989,725.86424 C 391.62369,725.15479 392.52799,730.49673 388.29139,734.73341 L 385.71499,737.30977 L 387.91329,743.18795 C 389.12239,746.42095 390.39419,749.06056 390.73969,749.05375 C 391.08509,749.04694 392.37189,747.49102 393.59909,745.59615 z M 287.10929,606.31613 C 288.54799,604.80363 290.00709,602.42357 290.35189,601.0271 C 291.14809,597.80146 289.38789,593.06613 287.39249,593.06613 C 286.21619,593.06613 285.86769,591.84362 285.86769,587.71617 C 285.86769,583.38564 286.42669,581.59453 288.80139,578.31646 C 290.41489,576.0891 291.46489,573.99658 291.13469,573.66642 C 290.80449,573.33626 287.75409,573.06613 284.35609,573.06613 C 279.44769,573.06613 277.80569,572.65502 276.36769,571.06613 C 275.16639,569.73863 273.28779,569.06613 270.78079,569.06613 C 267.72559,569.06613 266.59569,568.49287 264.86769,566.06613 C 263.69279,564.41613 262.04969,563.06613 261.21629,563.06613 C 260.38289,563.06613 259.86549,562.72863 260.06649,562.31613 C 260.26749,561.90363 261.01699,560.40599 261.73199,558.98804 C 262.90589,556.66031 262.74159,555.98053 260.04079,551.98804 C 254.10589,543.21481 253.18199,542.74772 242.14549,542.94076 C 233.25519,543.09626 232.14809,543.33143 229.94769,545.53167 C 227.91529,547.56401 227.73469,548.20096 228.82019,549.50884 C 230.78679,551.87848 227.76809,551.56219 224.59489,549.06613 C 221.31179,546.48366 221.20939,546.50483 219.32109,550.15639 C 217.29159,554.08092 218.05009,556.06319 221.58639,556.07695 C 225.28269,556.09134 233.08519,558.50727 236.35539,560.65 C 237.80059,561.5969 239.82489,564.02205 240.85399,566.03923 C 242.28669,568.84753 243.68929,569.9957 246.84059,570.93984 C 249.10409,571.61801 251.83619,571.89353 252.91189,571.55211 C 254.42249,571.07267 254.86769,571.40199 254.86769,572.99874 C 254.86769,574.67845 255.49789,575.06613 258.22819,575.06613 C 260.07639,575.06613 263.69799,575.35526 266.27619,575.70863 C 270.14149,576.23843 271.23139,576.8687 272.48949,579.30157 C 273.32859,580.9243 273.86949,582.36881 273.69149,582.51158 C 273.51339,582.65436 272.56169,583.20329 271.57659,583.73145 C 269.88369,584.63902 269.90349,584.84187 271.93749,587.42764 C 273.88749,589.90669 273.94489,590.32342 272.54859,591.86623 C 271.15109,593.41055 271.28689,594.23749 274.00909,600.75793 C 275.71629,604.84716 277.73419,608.13822 278.68909,608.39054 C 282.58029,609.4188 284.64099,608.91115 287.10929,606.31613 z M 571.61769,566.56727 L 575.86769,564.84897 L 575.86769,559.45755 C 575.86769,553.68394 575.70539,553.54859 570.12099,554.66547 C 566.80179,555.32932 562.45979,561.62327 563.36039,564.46529 C 563.63939,565.34575 564.09649,566.78782 564.37619,567.66988 C 564.65579,568.55195 565.44329,569.05132 566.12619,568.77961 C 566.80899,568.50789 569.28019,567.51234 571.61769,566.56727 z M 475.86459,566.06782 C 476.89049,565.51875 480.12339,564.70874 483.04879,564.26779 L 488.36769,563.46608 L 485.10089,561.73174 C 482.35309,560.27293 481.99569,559.69558 482.85089,558.09751 C 484.29229,555.40439 484.11299,554.06613 482.31099,554.06613 C 480.90209,554.06613 480.90209,553.85517 482.31099,551.84362 C 483.16719,550.62125 483.86769,548.34594 483.86769,546.78739 C 483.86769,544.39047 484.56139,543.64684 488.36769,541.96311 C 490.84269,540.86829 492.86769,539.59855 492.86769,539.14146 C 492.86769,538.68436 492.14419,536.57874 491.25989,534.4623 L 489.65209,530.61423 L 487.75989,532.95096 C 485.88939,535.26095 485.86769,535.26323 485.86769,533.15035 C 485.86769,531.14407 485.54659,531.22926 480.63109,534.53956 C 477.75089,536.47917 475.05089,538.06613 474.63109,538.06613 C 474.21119,538.06613 473.86769,535.89457 473.86769,533.24044 C 473.86769,529.33256 473.37339,527.95367 471.26869,525.99044 C 469.83929,524.65707 467.56009,521.38603 466.20389,518.72146 C 464.12089,514.62879 463.90339,513.40264 464.80289,510.82223 C 467.47929,503.14478 463.73239,501.29138 459.24459,508.07284 C 456.77389,511.80636 456.63849,512.58049 457.25889,519.42677 C 457.79819,525.37806 457.63429,527.015 456.39619,528.04251 C 454.27759,529.80081 454.46669,530.51352 457.47949,532.12593 C 458.91589,532.89469 460.49889,534.59612 460.99729,535.90688 C 461.65339,537.63254 462.45139,538.14676 463.88969,537.77063 C 466.33989,537.1299 467.58989,540.8482 465.95279,543.90725 C 464.76669,546.12336 464.53939,552.2384 465.50849,555.85618 C 465.84589,557.1157 467.41469,558.81476 468.99479,559.63186 C 470.89949,560.61682 471.86769,561.89519 471.86769,563.42514 C 471.86769,567.00415 472.87299,567.66885 475.86459,566.06782 z M 576.36199,535.69396 C 578.15909,534.37994 578.09299,534.11973 574.80319,529.5531 C 572.91369,526.93031 570.35859,524.41355 569.12529,523.96029 C 567.23719,523.26638 566.62509,523.63458 565.25159,526.29072 L 563.62029,529.44526 L 567.70529,533.2557 C 572.14779,537.39961 573.50619,537.78221 576.36199,535.69396 z M 238.74269,535.02858 C 240.26449,535.00682 243.04879,533.53147 245.36769,531.51812 L 249.36769,528.04521 L 246.96859,526.18884 C 244.75639,524.47722 244.70679,524.25556 246.33219,523.34594 C 247.79509,522.52726 247.89719,521.98969 246.93209,520.18638 C 245.97159,518.39172 246.12589,517.51224 247.81839,515.13537 C 250.02609,512.03495 250.54949,506.14785 248.77509,504.37349 C 247.98489,503.5833 247.98489,502.71571 248.77509,501.23923 C 250.32539,498.3424 250.30339,498.31775 245.77379,497.88578 C 241.68149,497.49552 241.67869,497.49769 238.77379,503.25223 C 237.17549,506.41851 235.86769,509.58443 235.86769,510.28761 C 235.86759,510.9908 233.12919,513.92863 229.78219,516.81613 C 224.67869,521.21896 223.06509,522.06613 219.78219,522.06613 C 217.62929,522.06613 215.87459,522.40363 215.88299,522.81613 C 215.92339,524.79169 217.73349,525.94569 221.25629,526.24163 C 224.74219,526.53449 225.36549,527.03841 227.64869,531.41005 C 229.98679,535.88691 230.40349,536.20897 233.14809,535.66005 C 234.78139,535.3334 237.29899,535.04923 238.74269,535.02858 z M 588.86769,520.49941 C 588.86769,520.18771 587.74269,518.45774 586.36769,516.65502 C 584.99269,514.8523 583.86769,512.43745 583.86769,511.28869 C 583.86769,510.03401 582.11519,507.76398 579.47869,505.60352 C 575.50519,502.34753 574.69569,502.07 570.92939,502.67226 L 566.76919,503.3375 L 567.06849,507.95181 C 567.35659,512.39481 567.48439,512.56613 570.50909,512.56613 C 572.23689,512.56613 574.48689,513.28688 575.50909,514.1678 C 580.17459,518.18829 588.86769,522.30861 588.86769,520.49941 z M 260.67469,498.15698 C 265.36489,490.29383 265.48859,489.82628 263.34899,488.05056 C 262.10609,487.01905 261.47029,487.11578 259.84899,488.58311 C 257.93569,490.31457 257.86769,490.30635 257.86769,488.34356 C 257.86769,487.22566 257.17229,485.73382 256.32219,485.02836 C 255.47219,484.3229 254.98819,483.19446 255.24679,482.52072 C 255.88709,480.85215 253.35589,477.42704 251.03369,476.81978 C 249.32559,476.3731 249.14979,476.89587 249.25309,482.11517 C 249.34479,486.74625 249.84589,488.41508 251.75529,490.447 C 253.87709,492.70511 254.00979,493.30884 252.94789,495.87268 C 251.95729,498.26413 252.04749,499.37519 253.47509,502.369 C 254.42229,504.35531 255.48629,505.80187 255.83949,505.58358 C 256.19269,505.36528 258.36859,502.02332 260.67469,498.15698 z M 579.81839,472.09251 C 580.81899,471.55702 581.92299,469.98202 582.27179,468.59251 C 582.79799,466.49596 583.49809,466.06613 586.38679,466.06613 C 590.14969,466.06613 590.59309,465.10425 588.89249,460.63123 C 587.11219,455.94866 579.32159,457.98242 574.41939,464.40947 C 571.41139,468.35316 571.34819,468.83457 573.52269,471.23739 C 575.37889,473.28845 577.13749,473.52731 579.81839,472.09251 z M 397.09449,425.30279 L 400.82119,419.56613 L 398.09449,418.98342 C 396.59479,418.66293 393.96289,417.66867 392.24579,416.77396 L 389.12379,415.1472 L 387.86149,421.09569 C 387.16719,424.36736 385.96319,427.5719 385.18609,428.21689 C 383.24499,429.82782 385.24849,431.03487 389.86769,431.03747 C 393.02869,431.03925 393.72879,430.48372 397.09449,425.30279 z M 271.84749,422.45755 C 274.05859,421.57283 275.86769,420.42548 275.86769,419.90789 C 275.86769,419.06652 273.11099,413.13033 272.28569,412.19464 C 272.10549,411.99031 269.93229,413.0103 267.45639,414.46127 L 262.95479,417.0994 L 265.01009,420.58277 C 266.14039,422.49862 267.23669,424.06613 267.44629,424.06613 C 267.65579,424.06613 269.63639,423.34227 271.84749,422.45755 z M 428.89249,412.50103 C 429.42889,411.09023 429.86769,408.45022 429.86769,406.63436 C 429.86769,403.60423 429.44519,403.15717 424.72809,401.19686 L 419.58849,399.06094 L 420.21939,404.31353 C 420.56639,407.20246 420.85429,410.54733 420.85899,411.74658 C 420.86719,413.794 422.03709,414.43796 426.64249,414.92995 C 427.34359,415.00485 428.35609,413.91184 428.89249,412.50103 z M 268.24559,411.55271 C 272.33219,409.84523 272.20459,410.08241 270.89249,406.63123 C 270.20469,404.82221 269.18059,404.06613 267.41819,404.06613 C 264.13039,404.06613 261.02819,398.64001 262.74469,395.89149 C 263.36239,394.90247 263.86769,392.54717 263.86769,390.6575 C 263.86769,387.80082 263.06709,386.53069 259.11769,383.12163 C 255.22919,379.76514 253.73299,379.07091 250.86769,379.29383 C 247.70129,379.54018 247.33739,379.88218 247.04939,382.88221 C 246.82279,385.24397 247.47029,387.16732 249.29939,389.56549 C 252.18969,393.35477 252.51909,394.53008 250.47079,393.74406 C 248.84709,393.12099 247.72169,398.23293 249.02899,400.29287 C 249.47349,400.99316 249.84399,402.95019 249.85239,404.64182 C 249.87379,408.92719 253.29079,411.8393 258.86769,412.32489 C 261.34269,412.5404 263.65029,412.79533 263.99559,412.89142 C 264.34089,412.98751 266.25339,412.38509 268.24559,411.55271 z M 461.37409,386.06613 C 461.66449,384.69113 462.56939,381.48073 463.38489,378.93192 C 465.11269,373.53227 465.27239,370.43423 463.86769,369.56613 C 463.31769,369.22621 462.86769,367.39965 462.86769,365.50711 C 462.86769,362.1126 461.64139,361.00529 460.29489,363.18398 C 459.85779,363.89124 457.98919,364.08049 455.20749,363.69922 C 451.22059,363.15276 450.70589,363.32724 449.68319,365.57184 C 448.78909,367.53409 448.89879,368.82622 450.21259,371.8066 C 451.12399,373.87434 452.27799,378.49113 452.77699,382.06613 C 453.27599,385.64113 454.19889,389.89427 454.82779,391.51755 L 455.97139,394.46897 L 458.40869,391.51755 C 459.74919,389.89427 461.08359,387.44113 461.37409,386.06613 z M 558.00929,365.07978 C 558.93579,365.07208 559.93429,363.93686 560.30159,362.47378 C 560.83169,360.36146 560.20369,359.06937 556.90999,355.49612 C 553.42349,351.71373 552.86769,350.48611 552.86769,346.56703 C 552.86769,342.66183 552.50779,341.85925 550.30659,340.85632 C 548.37409,339.97583 547.87829,339.16007 548.28669,337.53299 C 548.71099,335.84257 547.90789,334.71586 544.57039,332.31906 L 540.31289,329.26154 L 535.43139,332.87733 L 530.54999,336.49312 L 534.45889,339.52963 C 543.24229,346.35278 549.66829,355.4392 551.35509,363.4209 C 551.85279,365.7759 552.34439,366.17219 554.16309,365.68456 C 555.37559,365.35944 557.10649,365.08729 558.00929,365.07978 z M 172.65649,359.21785 C 173.63769,358.59529 173.69129,357.73231 172.88099,355.60108 C 172.29569,354.06157 172.07139,351.99966 172.38269,351.01905 C 172.74969,349.86262 172.15339,348.67921 170.68559,347.65114 C 168.16479,345.88545 162.32419,345.51849 161.36799,347.06572 C 160.75139,348.06337 169.36529,360.07984 170.67619,360.05082 C 171.05649,360.0424 171.94769,359.66756 172.65649,359.21785 z M 401.36769,342.04245 C 409.70629,339.96473 411.86769,338.93348 411.86769,337.03271 C 411.86769,334.92092 408.29979,334.135 396.56469,333.66181 C 391.14079,333.44311 388.89679,333.68546 389.20489,334.45665 C 392.81259,343.48499 393.23929,344.19954 394.75829,343.75709 C 395.64349,343.49925 398.61769,342.72766 401.36769,342.04245 z M 525.86769,300.3323 C 525.86769,296.8207 525.09149,294.92996 521.84629,290.5371 C 519.54949,287.42808 516.76189,284.82668 515.34629,284.47139 C 513.23499,283.9415 512.86769,283.26785 512.86769,279.9256 C 512.86769,275.42871 510.93179,270.19167 508.53459,268.20365 C 507.02049,266.94794 507.05089,266.61767 508.92229,263.98952 L 510.95279,261.13788 L 504.91029,258.08761 C 500.54309,255.88304 498.86769,255.42316 498.86769,256.4289 C 498.86769,257.47517 497.80989,257.70123 494.60459,257.33994 C 491.08409,256.94313 488.81849,257.58301 481.59829,261.01334 C 473.54579,264.83908 472.90319,265.35937 473.46539,267.59904 C 473.80099,268.93652 473.62259,271.33071 473.06869,272.91945 L 472.06169,275.80808 L 482.10059,276.29148 C 490.64959,276.70315 492.37899,277.07626 493.75359,278.80555 C 494.64139,279.92242 497.39269,282.0777 499.86769,283.59506 C 502.34269,285.11242 506.07939,287.88481 508.17139,289.75591 C 510.26339,291.62702 512.99729,293.62368 514.24669,294.19293 C 515.56349,294.79291 517.89489,298.01955 519.79349,301.8698 C 522.84139,308.05054 523.16589,308.3788 524.46829,306.59778 C 525.23799,305.54513 525.86769,302.72566 525.86769,300.3323 z M 486.86769,264.97343 C 486.86769,264.51681 488.69589,263.65095 490.93029,263.04929 C 493.16469,262.44763 495.63969,261.70714 496.43029,261.40376 C 497.22089,261.10037 497.86689,261.2378 497.86589,261.70914 C 497.86479,262.18049 495.38979,263.29457 492.36589,264.18488 C 489.34189,265.0752 486.86769,265.43004 486.86769,264.97343 z M 737.28589,268.45914 C 738.15589,268.1253 738.86769,266.8128 738.86769,265.54247 C 738.86769,264.27215 739.34579,263.07344 739.93009,262.87867 C 740.67999,262.62871 740.67999,261.7025 739.93009,259.73023 C 738.27329,255.37254 738.60489,254.06613 741.36769,254.06613 C 743.42499,254.06613 743.87019,253.57916 743.88139,251.31613 C 743.90409,246.73257 744.91609,244.37819 747.44539,243.02459 C 754.16029,239.43087 754.10969,232.06613 747.37009,232.06613 C 744.02739,232.06613 743.86349,231.91248 744.43599,229.31613 C 746.45979,220.13707 748.05089,216.2668 750.92239,213.53835 C 752.64289,211.90363 754.94329,209.32407 756.03439,207.80601 L 758.01829,205.04588 L 755.80389,201.46292 C 753.81119,198.23851 753.27819,197.94813 750.47859,198.56123 C 748.76759,198.93592 745.70419,199.32686 743.67099,199.42997 C 741.53499,199.53829 739.00179,200.50126 737.67099,201.71082 C 735.17799,203.97661 725.36109,205.67349 724.33659,204.01572 C 724.01379,203.49344 722.69939,203.06613 721.41569,203.06613 C 718.75349,203.06613 717.86769,201.4032 717.86769,196.40489 C 717.86769,192.98292 717.79739,192.92226 714.61769,193.60215 C 710.34159,194.51649 708.86769,195.8075 708.86769,198.63888 C 708.86769,199.91921 708.10829,201.39175 707.18009,201.91119 C 705.59799,202.79657 705.60069,203.34682 707.22219,210.71088 C 708.17349,215.03127 709.29459,221.2769 709.71339,224.59006 C 710.44269,230.35977 710.30809,230.92405 706.52289,237.96134 C 703.80359,243.01699 701.49129,245.94568 699.10959,247.35093 C 695.86509,249.26525 695.68189,249.64915 696.18539,253.47965 C 696.60439,256.66764 697.64619,258.39064 700.92369,261.31613 C 705.82559,265.69153 707.37419,265.89028 712.01659,262.73985 C 715.11179,260.63937 715.78059,260.53492 718.90619,261.66377 C 720.80999,262.35138 723.43649,262.94821 724.74269,262.99005 C 726.83819,263.05718 727.04709,263.41917 726.51769,266.06613 L 725.91769,269.06613 L 730.81089,269.06613 C 733.50219,269.06613 736.41599,268.79299 737.28589,268.45914 z M 719.39379,184.94753 C 719.77049,183.23229 719.62209,180.86979 719.06389,179.69753 C 718.50579,178.52526 717.75539,176.66907 717.39639,175.57266 C 716.77119,173.66341 716.66269,173.68454 714.82789,176.07266 C 711.44899,180.47064 712.44159,188.06613 716.39529,188.06613 C 718.17229,188.06613 718.86769,187.34298 719.39379,184.94753 z M 214.86769,1128.5661 C 214.86769,1127.6494 215.35149,1127.0607 215.94269,1127.2578 C 216.53399,1127.4548 217.01769,1128.0436 217.01769,1128.5661 C 217.01769,1129.0886 216.53399,1129.6774 215.94269,1129.8744 C 215.35149,1130.0715 214.86769,1129.4828 214.86769,1128.5661 z M 70.889074,1094.3161 C 70.928034,1092.9477 78.651514,1088.0661 80.777504,1088.0661 C 84.082014,1088.0661 83.235944,1089.6603 78.439654,1092.4711 C 74.102984,1095.0125 70.846594,1095.8083 70.889074,1094.3161 z M 128.61459,1083.9234 C 129.27729,1081.3933 142.90489,1079.6992 144.30969,1081.9722 C 144.61769,1082.4706 145.76929,1082.6431 146.86869,1082.3556 C 147.96819,1082.0681 148.86769,1082.1215 148.86769,1082.4742 C 148.86769,1083.9148 142.91869,1085.2445 135.77609,1085.4004 C 129.17979,1085.5444 128.24079,1085.3507 128.61459,1083.9234 z M 199.05789,1066.9957 C 199.28489,1066.3145 200.49259,1065.3791 201.74149,1064.9171 C 203.60039,1064.2294 203.95199,1064.3935 203.67979,1065.8216 C 203.49689,1066.7811 202.28929,1067.7165 200.99609,1067.9002 C 199.46739,1068.1175 198.78939,1067.8011 199.05789,1066.9957 z M 417.32809,1022.9413 C 416.47439,1020.2515 418.19929,1019.1015 423.11769,1019.0814 C 426.62109,1019.0671 426.86769,1019.2634 426.86769,1022.0661 C 426.86769,1024.9482 426.69359,1025.0661 422.43509,1025.0661 C 418.79399,1025.0661 417.88209,1024.6867 417.32809,1022.9413 z M 43.728514,1002.0328 C 45.026944,1000.9511 46.904914,1000.0661 47.901784,1000.0661 C 48.898654,1000.0661 50.986304,999.01072 52.541004,997.72062 C 55.329164,995.40722 55.420954,995.39902 59.269274,997.11972 L 63.170824,998.86412 L 57.672784,1001.4651 C 53.809674,1003.2927 50.567924,1004.0562 46.771234,1004.0328 L 41.367724,1003.9996 L 43.728514,1002.0328 z M 16.433654,950.1728 C 16.129994,949.68147 17.088494,948.97655 18.563644,948.60631 C 20.038794,948.23607 22.510684,947.03243 24.056734,945.93155 L 26.867724,943.92994 L 26.867724,945.99804 C 26.867724,947.46664 26.215504,948.07535 24.617724,948.09793 C 23.380224,948.11543 21.494214,948.79043 20.426594,949.59793 C 18.190494,951.28924 17.210814,951.43028 16.433654,950.1728 z M 199.86769,747.06613 C 199.86769,746.51613 200.54269,746.06613 201.36769,746.06613 C 202.19269,746.06613 202.86769,746.51613 202.86769,747.06613 C 202.86769,747.61613 202.19269,748.06613 201.36769,748.06613 C 200.54269,748.06613 199.86769,747.61613 199.86769,747.06613 z M 202.44439,678.8869 C 200.86199,676.64186 200.89409,676.55552 203.42959,676.24089 C 206.88029,675.81268 207.38909,676.48376 205.57599,679.07224 L 204.08029,681.20768 L 202.44439,678.8869 z M 191.44799,672.196 C 191.18189,671.76547 191.21999,670.43512 191.53259,669.23967 C 191.95029,667.64225 192.86529,667.06613 194.98439,667.06613 C 199.45439,667.06613 198.55979,670.61935 193.64979,672.36722 C 192.70489,672.70358 191.71409,672.62653 191.44799,672.196 z M 181.77059,664.16216 C 179.79219,663.26819 176.59669,661.33403 174.66939,659.86403 C 172.74219,658.39404 167.94829,655.7529 164.01649,653.99483 C 160.08469,652.23677 156.86769,650.35685 156.86769,649.81723 C 156.86769,649.27762 157.96919,649.55779 159.31529,650.43984 C 160.66149,651.32189 162.49189,651.76385 163.38279,651.42198 C 164.27369,651.0801 165.98479,651.26379 167.18519,651.83018 C 168.38559,652.39657 171.61769,653.24386 174.36769,653.71305 C 179.02999,654.50852 179.34659,654.74722 179.05519,657.24746 C 178.68169,660.45137 181.76269,662.56029 185.46089,661.63211 C 187.14279,661.20997 187.86769,661.44868 187.86769,662.42463 C 187.86769,665.18337 185.51459,665.85395 181.77059,664.16216 z M 169.96319,626.12515 C 168.96869,625.51049 168.94099,625.13887 169.84809,624.57826 C 170.50469,624.17244 171.49199,624.29039 172.04199,624.84039 C 173.34519,626.14361 171.66919,627.17947 169.96319,626.12515 z M 179.86769,626.17611 C 176.47999,625.58301 176.37069,625.4241 176.46099,621.22063 C 176.55579,616.80717 177.83579,615.11036 181.09209,615.08144 C 183.28319,615.06198 186.08389,620.39028 185.67779,623.80541 C 185.32399,626.7792 184.72009,627.02562 179.86769,626.17611 z M 177.38589,608.09545 C 176.69539,606.97828 181.61759,605.48268 182.63529,606.50041 C 183.39519,607.26028 180.99889,609.02739 179.17679,609.05082 C 178.52169,609.05924 177.71579,608.62932 177.38589,608.09545 z M 141.90319,578.81613 L 141.93859,575.56613 L 143.31539,578.05358 C 144.71039,580.57373 144.52189,582.06613 142.80869,582.06613 C 142.29119,582.06613 141.88369,580.60363 141.90319,578.81613 z M 86.499874,513.54991 C 85.590404,511.17987 85.520774,511.25649 89.617724,510.11871 C 94.534934,508.75313 95.550784,508.79781 96.168214,510.40681 C 97.012634,512.60734 95.604864,513.78157 91.249874,514.50923 C 87.930694,515.06383 87.009424,514.87776 86.499874,513.54991 z M 106.36772,492.06613 C 105.31474,490.36238 106.85254,489.06613 109.92674,489.06613 C 113.28881,489.06613 113.77852,490.50832 110.93346,492.03095 C 108.50125,493.33262 107.15686,493.34298 106.36772,492.06613 z M 120.86772,463.06613 C 120.86772,461.82034 121.53439,461.06613 122.63559,461.06613 C 123.60791,461.06613 126.0072,459.97635 127.96739,458.64441 L 131.53119,456.22269 L 134.44949,458.56793 L 137.36769,460.91318 L 132.86769,462.96769 C 130.39269,464.09767 126.68019,465.03209 124.61772,465.04417 C 121.52707,465.06227 120.86772,464.71448 120.86772,463.06613 z M 134.59229,438.3143 C 133.72039,437.35079 132.53959,435.33335 131.96849,433.8311 C 131.16039,431.70574 130.07349,430.96276 127.06949,430.4824 C 124.37317,430.05124 122.73067,429.07681 121.62294,427.25117 C 120.14281,424.81179 120.17386,424.44494 122.08807,421.75668 L 124.13922,418.8761 L 121.09299,415.82986 C 118.14569,412.88256 117.89954,412.82069 113.51441,413.92488 C 106.74704,415.62892 99.807254,415.32953 95.530314,413.14902 C 92.006334,411.3524 91.910984,411.18718 94.013054,410.52 C 96.772474,409.6442 99.789714,406.16958 99.834454,403.81613 C 99.877454,401.55426 101.63373,401.60892 107.86772,404.06613 C 114.35736,406.62411 114.86772,406.58609 114.86772,403.54469 C 114.86772,399.48481 118.42031,398.51677 124.21074,400.99884 C 128.58189,402.87252 129.24759,402.92107 131.88279,401.55834 C 135.86119,399.50102 136.15929,399.59525 138.31069,403.59007 C 140.18369,407.06811 140.18239,407.1495 138.20499,409.84007 C 137.10309,411.3394 135.90149,414.08488 135.53469,415.94113 C 134.87709,419.26849 134.91069,419.30753 137.91239,418.70719 L 140.95709,418.09826 L 140.26629,428.33219 C 139.48989,439.83478 138.13129,442.22485 134.59229,438.3143 z M 97.867724,366.06613 C 97.867724,365.51613 98.344284,365.06613 98.926744,365.06613 C 99.509204,365.06613 99.707644,365.51613 99.367724,366.06613 C 99.027804,366.61613 98.551244,367.06613 98.308704,367.06613 C 98.066164,367.06613 97.867724,366.61613 97.867724,366.06613 z M 377.51759,131.60086 C 376.31819,130.69222 375.96509,129.73612 376.51379,128.88266 C 376.97919,128.15857 377.36179,126.22645 377.36389,124.58906 C 377.37239,117.94938 384.31999,121.71185 385.16929,128.81613 C 385.67309,133.03038 385.65089,133.06586 382.52259,133.03433 C 380.78739,133.01683 378.53519,132.37178 377.51759,131.60086 z M 395.94669,115.4828 C 395.99469,114.31785 396.23159,114.0809 396.55079,114.87863 C 396.83969,115.60051 396.80419,116.463 396.47189,116.7953 C 396.13959,117.12759 395.90329,116.53696 395.94669,115.4828 z M 546.52269,107.23739 C 544.61709,105.13173 544.40809,103.46826 545.93069,102.52719 C 547.38119,101.63077 550.86769,104.94567 550.86769,107.22112 C 550.86769,109.58352 548.65339,109.59181 546.52269,107.23739 z M 406.31389,100.979 C 405.94429,100.38108 406.14279,99.391085 406.75489,98.779005 C 407.57199,97.961845 407.86769,98.250725 407.86769,99.866135 C 407.86769,102.28064 407.34829,102.65268 406.31389,100.979 z M 429.69089,51.356945 C 427.04229,50.951724 423.53069,48.066138 425.68629,48.066138 C 426.27119,48.066138 427.02779,48.516138 427.36769,49.066138 C 427.70769,49.616138 428.83269,50.066138 429.86769,50.066138 C 430.90279,50.066138 432.02779,50.516138 432.36769,51.066138 C 432.70769,51.616138 432.84669,51.998714 432.67679,51.916306 C 432.50679,51.833898 431.16319,51.582186 429.69089,51.356945 z M 759.38539,43.816138 C 759.15459,43.128638 758.83119,41.471431 758.66679,40.133457 C 758.45309,38.394934 757.51849,37.474985 755.39169,36.90949 C 753.65829,36.448594 752.00899,36.524869 751.44169,37.092171 C 749.92399,38.609832 746.86769,38.236807 746.86769,36.533914 C 746.86769,34.838926 750.79349,32.957834 752.36769,33.898495 C 752.91769,34.227137 755.16769,34.736801 757.36769,35.031082 C 761.34349,35.562893 761.36959,35.59495 761.67249,40.316138 C 761.86109,43.254451 761.56299,45.066138 760.89109,45.066138 C 760.29369,45.066138 759.61619,44.503638 759.38539,43.816138 z "
     id="path2008" />
</svg>
