<?xml version="1.0" encoding="UTF-8" standalone="no"?>
<!-- Created with Inkscape (http://www.inkscape.org/) -->

<svg
   xmlns:dc="http://purl.org/dc/elements/1.1/"
   xmlns:cc="http://creativecommons.org/ns#"
   xmlns:rdf="http://www.w3.org/1999/02/22-rdf-syntax-ns#"
   xmlns:svg="http://www.w3.org/2000/svg"
   xmlns="http://www.w3.org/2000/svg"
   xmlns:sodipodi="http://sodipodi.sourceforge.net/DTD/sodipodi-0.dtd"
   xmlns:inkscape="http://www.inkscape.org/namespaces/inkscape"
   width="650"
   height="1050"
   viewBox="0 0 649.99996 1050"
   id="svg3536"
   version="1.1"
   inkscape:version="0.91 r13725"
   sodipodi:docname="arrow-right.svg">
  <defs
     id="defs3538" />
  <sodipodi:namedview
     id="base"
     pagecolor="#ffffff"
     bordercolor="#666666"
     borderopacity="1.0"
     inkscape:pageopacity="0.0"
     inkscape:pageshadow="2"
     inkscape:zoom="0.35"
     inkscape:cx="375"
     inkscape:cy="520"
     inkscape:document-units="px"
     inkscape:current-layer="layer1"
     showgrid="false"
     units="px"
     inkscape:window-width="1440"
     inkscape:window-height="851"
     inkscape:window-x="0"
     inkscape:window-y="23"
     inkscape:window-maximized="1" />
  <metadata
     id="metadata3541">
    <rdf:RDF>
      <cc:Work
         rdf:about="">
        <dc:format>image/svg+xml</dc:format>
        <dc:type
           rdf:resource="http://purl.org/dc/dcmitype/StillImage" />
        <dc:title />
      </cc:Work>
    </rdf:RDF>
  </metadata>
  <g
     inkscape:label="Layer 1"
     inkscape:groupmode="layer"
     id="layer1"
     transform="translate(0,-2.36202)">
    <path
       style="fill:#000000;fill-rule:evenodd;stroke:#000000;stroke-width:0.94649959px;stroke-linecap:butt;stroke-linejoin:miter;stroke-opacity:1"
       d="m 0.1078317,3.7705909 327.1715383,0 327.17157,525.7344691 -327.17157,525.73454 -327.1715383,0 L 327.27937,529.50506 Z"
       id="path3525"
       inkscape:connector-curvature="0" />
    <path
       style="fill:#ffffff"
       d="M 4.0045811,1048.7143 C 5.5704986,1046.75 79.092549,928.95431 167.38691,786.94606 263.06336,633.06486 327.27217,527.05554 326.3134,524.55706 324.697,520.34471 280.17425,448.468 101.36571,161.40545 48.207426,76.06416 4.7142857,5.6606863 4.7142857,4.9532851 4.7142857,4.245884 77.45486,3.9991466 166.36001,4.4049794 l 161.6457,0.7378777 162.42812,261.0350829 162.42808,261.03509 -12.72508,20.39348 c -6.9988,11.21643 -80.5106,129.35206 -163.35954,262.52366 l -150.63443,242.13013 -162.4927,0.012 C 34.040949,1052.2831 1.733628,1051.563 4.0045811,1048.7143 Z"
       id="path3334"
       inkscape:connector-curvature="0"
       transform="translate(-3.0517578e-5,2.36202)" />
  </g>
</svg>
